<svg width="31" height="30" viewBox="0 0 31 30" fill="none" xmlns="http://www.w3.org/2000/svg">
<path d="M27.7591 26.3854C27.7591 27.4913 26.826 28.3879 25.675 28.3879C24.5241 28.3879 23.5909 27.4913 23.5909 26.3854C23.5909 25.2794 24.5241 24.3828 25.675 24.3828C26.826 24.3828 27.7591 25.2794 27.7591 26.3854Z" stroke="#951212" stroke-width="2" stroke-linecap="round" stroke-linejoin="round"/>
<path d="M13.8653 26.3854C13.8653 27.4913 12.9321 28.3879 11.7812 28.3879C10.6302 28.3879 9.69708 27.4913 9.69708 26.3854C9.69708 25.2794 10.6302 24.3828 11.7812 24.3828C12.9321 24.3828 13.8653 25.2794 13.8653 26.3854Z" stroke="#951212" stroke-width="2" stroke-linecap="round" stroke-linejoin="round"/>
<path d="M21.5069 4.3573H29.1486L26.3698 19.0427H20.1176M21.5069 4.3573L20.1176 19.0427M21.5069 4.3573H13.518M20.1176 19.0427H14.56M13.518 4.3573H5.52896L8.30774 19.0427H14.56M13.518 4.3573L14.56 19.0427" stroke="#951212" stroke-width="2" stroke-linecap="round" stroke-linejoin="round"/>
<path d="M5.52892 4.35727C5.29735 3.46724 4.13953 1.68719 1.36075 1.68719" stroke="#951212" stroke-width="2" stroke-linecap="round" stroke-linejoin="round"/>
<path d="M26.3698 19.0427H8.30771H5.84956C3.37045 19.0427 2.05545 20.0857 2.05545 21.7128C2.05545 23.3399 3.37045 24.3829 5.84956 24.3829H25.6751" stroke="#951212" stroke-width="2" stroke-linecap="round" stroke-linejoin="round"/>
</svg>
