<svg width="29" height="29" viewBox="0 0 29 29" fill="none" xmlns="http://www.w3.org/2000/svg">
<path d="M25.8184 25.975C25.8184 27.0934 24.9442 28 23.8659 28C22.7876 28 21.9135 27.0934 21.9135 25.975C21.9135 24.8567 22.7876 23.95 23.8659 23.95C24.9442 23.95 25.8184 24.8567 25.8184 25.975Z" stroke="#951212" stroke-width="2" stroke-linecap="round" stroke-linejoin="round"/>
<path d="M12.8018 25.975C12.8018 27.0934 11.9276 28 10.8493 28C9.77101 28 8.89685 27.0934 8.89685 25.975C8.89685 24.8567 9.77101 23.95 10.8493 23.95C11.9276 23.95 12.8018 24.8567 12.8018 25.975Z" stroke="#951212" stroke-width="2" stroke-linecap="round" stroke-linejoin="round"/>
<path d="M19.9612 3.70001H27.1203L24.517 18.55H18.6595M19.9612 3.70001L18.6595 18.55M19.9612 3.70001H12.4766M18.6595 18.55H13.4529M12.4766 3.70001H4.99207L7.59539 18.55H13.4529M12.4766 3.70001L13.4529 18.55" stroke="#951212" stroke-width="2" stroke-linecap="round" stroke-linejoin="round"/>
<path d="M4.99202 3.7C4.77508 2.8 3.69036 1 1.08704 1" stroke="#951212" stroke-width="2" stroke-linecap="round" stroke-linejoin="round"/>
<path d="M24.5169 18.55H7.59528H5.29233C2.96976 18.55 1.73779 19.6047 1.73779 21.25C1.73779 22.8954 2.96976 23.9501 5.29233 23.9501H23.8661" stroke="#951212" stroke-width="2" stroke-linecap="round" stroke-linejoin="round"/>
</svg>
