<svg width="24" height="24" viewBox="0 0 24 24" fill="none" xmlns="http://www.w3.org/2000/svg">
<rect width="24" height="24" rx="12" fill="#951212"/>
<path fill-rule="evenodd" clip-rule="evenodd" d="M11.9802 5.16663C10.9126 5.16663 10.0255 5.20468 9.30588 5.35196C8.57721 5.50108 7.97667 5.77068 7.52549 6.26495C7.07962 6.75339 6.83154 7.40491 6.68935 8.21273C6.54741 9.01911 6.50285 10.0315 6.50285 11.286C6.50285 11.7701 6.50203 12.2246 6.50126 12.651C6.49762 14.6675 6.49511 16.0538 6.58603 16.9579C6.64027 17.4974 6.73382 17.9552 6.93949 18.2841C7.05011 18.461 7.19701 18.6075 7.38775 18.7051C7.57508 18.8009 7.77287 18.8333 7.96219 18.8333C8.3947 18.8333 8.81409 18.5954 9.15262 18.3602C9.48309 18.1305 9.83096 17.8332 10.1599 17.5521L10.2378 17.4856C10.6011 17.1755 10.9423 16.8892 11.2625 16.679C11.5946 16.461 11.8281 16.3773 11.9802 16.3773C12.1323 16.3773 12.3658 16.461 12.6979 16.679C13.0181 16.8892 13.3593 17.1755 13.7226 17.4856L13.8004 17.5521C14.1294 17.8332 14.4773 18.1305 14.8078 18.3602C15.1463 18.5954 15.5657 18.8333 15.9982 18.8333C16.1875 18.8333 16.3853 18.8009 16.5726 18.7051C16.7634 18.6075 16.9103 18.461 17.0209 18.2841C17.2266 17.9552 17.3201 17.4974 17.3743 16.9579C17.4653 16.0538 17.4628 14.6675 17.4591 12.651C17.4583 12.2246 17.4575 11.7701 17.4575 11.286C17.4575 10.0315 17.413 9.01911 17.271 8.21273C17.1288 7.40491 16.8807 6.75339 16.4349 6.26495C15.9837 5.77068 15.3832 5.50108 14.6545 5.35196C13.9349 5.20468 13.0478 5.16663 11.9802 5.16663ZM7.50285 11.286C7.50285 10.0414 7.54821 9.1019 7.67421 8.38609C7.79995 7.67172 7.99783 7.23077 8.26405 6.93913C8.52495 6.65332 8.90262 6.45521 9.50638 6.33165C10.1192 6.20624 10.9188 6.16663 11.9802 6.16663C13.0416 6.16663 13.8412 6.20624 14.454 6.33165C15.0578 6.45521 15.4354 6.65332 15.6963 6.93913C15.9625 7.23077 16.1604 7.67172 16.2862 8.38609C16.4122 9.1019 16.4575 10.0414 16.4575 11.286C16.4575 11.7819 16.4583 12.2438 16.459 12.6739C16.4625 14.6911 16.4647 16.0093 16.3794 16.8578C16.3268 17.3808 16.247 17.6356 16.173 17.7539C16.1438 17.8006 16.1243 17.8112 16.1172 17.8148C16.1066 17.8203 16.0749 17.8333 15.9982 17.8333C15.899 17.8333 15.7026 17.7642 15.3784 17.5389C15.0909 17.3392 14.78 17.0736 14.4386 16.7821L14.3718 16.725C14.0157 16.4211 13.6279 16.0934 13.2467 15.8431C12.8774 15.6006 12.4371 15.3773 11.9802 15.3773C11.5233 15.3773 11.0829 15.6006 10.7137 15.8431C10.3324 16.0934 9.94463 16.4211 9.58857 16.725L9.52175 16.7821L9.52171 16.7821C9.18035 17.0737 8.86943 17.3392 8.58201 17.5389C8.25778 17.7642 8.06134 17.8333 7.96219 17.8333C7.8855 17.8333 7.85381 17.8203 7.84321 17.8148C7.83602 17.8112 7.81654 17.8006 7.78734 17.7539C7.71339 17.6356 7.6336 17.3808 7.58101 16.8578C7.49568 16.0093 7.49792 14.6911 7.50134 12.6739L7.50134 12.6739C7.50207 12.2438 7.50285 11.7819 7.50285 11.286ZM9.69501 9.64509C9.41886 9.64509 9.19501 9.86895 9.19501 10.1451C9.19501 10.4212 9.41886 10.6451 9.69501 10.6451H14.265C14.5412 10.6451 14.765 10.4212 14.765 10.1451C14.765 9.86895 14.5412 9.64509 14.265 9.64509H9.69501Z" fill="white"/>
</svg>
