<svg width="24" height="24" viewBox="0 0 24 24" fill="none" xmlns="http://www.w3.org/2000/svg">
<rect width="24" height="24" rx="12" fill="white"/>
<path fill-rule="evenodd" clip-rule="evenodd" d="M11.9802 5.16663C10.9126 5.16663 10.0255 5.20468 9.30587 5.35196C8.5772 5.50108 7.97666 5.77068 7.52547 6.26495C7.07961 6.75339 6.83153 7.40491 6.68933 8.21273C6.5474 9.01911 6.50284 10.0315 6.50284 11.286C6.50284 11.7701 6.50202 12.2246 6.50125 12.651C6.4976 14.6675 6.4951 16.0538 6.58601 16.9579C6.64026 17.4974 6.7338 17.9552 6.93948 18.2841C7.05009 18.461 7.19699 18.6075 7.38774 18.7051C7.57507 18.8009 7.77285 18.8333 7.96217 18.8333C8.39469 18.8333 8.81408 18.5954 9.1526 18.3602C9.48307 18.1305 9.83094 17.8332 10.1599 17.5521L10.2378 17.4856C10.6011 17.1755 10.9423 16.8892 11.2625 16.679C11.5946 16.461 11.8281 16.3773 11.9802 16.3773C12.1323 16.3773 12.3657 16.461 12.6979 16.679C13.0181 16.8892 13.3593 17.1755 13.7226 17.4856L13.8004 17.5521C14.1294 17.8332 14.4773 18.1305 14.8077 18.3602C15.1463 18.5954 15.5657 18.8333 15.9982 18.8333C16.1875 18.8333 16.3853 18.8009 16.5726 18.7051C16.7634 18.6075 16.9102 18.461 17.0209 18.2841C17.2265 17.9552 17.3201 17.4974 17.3743 16.9579C17.4652 16.0538 17.4627 14.6675 17.4591 12.651C17.4583 12.2246 17.4575 11.7701 17.4575 11.286C17.4575 10.0315 17.4129 9.01911 17.271 8.21273C17.1288 7.40491 16.8807 6.75339 16.4349 6.26495C15.9837 5.77068 15.3831 5.50108 14.6545 5.35196C13.9348 5.20468 13.0477 5.16663 11.9802 5.16663ZM7.50284 11.286C7.50284 10.0414 7.5482 9.1019 7.67419 8.38609C7.79994 7.67172 7.99782 7.23077 8.26404 6.93913C8.52494 6.65332 8.9026 6.45521 9.50637 6.33165C10.1192 6.20624 10.9187 6.16663 11.9802 6.16663C13.0416 6.16663 13.8412 6.20624 14.454 6.33165C15.0577 6.45521 15.4354 6.65332 15.6963 6.93913C15.9625 7.23077 16.1604 7.67172 16.2861 8.38609C16.4121 9.1019 16.4575 10.0414 16.4575 11.286C16.4575 11.7819 16.4583 12.2438 16.459 12.6739C16.4624 14.6911 16.4647 16.0093 16.3793 16.8578C16.3268 17.3808 16.247 17.6356 16.173 17.7539C16.1438 17.8006 16.1243 17.8112 16.1171 17.8148C16.1065 17.8203 16.0749 17.8333 15.9982 17.8333C15.899 17.8333 15.7026 17.7642 15.3784 17.5389C15.0909 17.3392 14.78 17.0736 14.4386 16.7821L14.3718 16.725C14.0157 16.4211 13.6279 16.0934 13.2467 15.8431C12.8774 15.6006 12.4371 15.3773 11.9802 15.3773C11.5233 15.3773 11.0829 15.6006 10.7136 15.8431C10.3324 16.0934 9.94462 16.4211 9.58856 16.725L9.52173 16.7821L9.52169 16.7821C9.18033 17.0737 8.86941 17.3392 8.58199 17.5389C8.25777 17.7642 8.06132 17.8333 7.96217 17.8333C7.88549 17.8333 7.85379 17.8203 7.84319 17.8148C7.83601 17.8112 7.81652 17.8006 7.78732 17.7539C7.71337 17.6356 7.63358 17.3808 7.581 16.8578C7.49567 16.0093 7.4979 14.6911 7.50132 12.6739L7.50132 12.6739C7.50205 12.2438 7.50284 11.7819 7.50284 11.286ZM9.69499 9.64509C9.41885 9.64509 9.19499 9.86895 9.19499 10.1451C9.19499 10.4212 9.41885 10.6451 9.69499 10.6451H14.265C14.5411 10.6451 14.765 10.4212 14.765 10.1451C14.765 9.86895 14.5411 9.64509 14.265 9.64509H9.69499Z" fill="#951212"/>
</svg>
