<svg width="31" height="24" viewBox="0 0 31 24" fill="none" xmlns="http://www.w3.org/2000/svg">
<rect x="7" width="24" height="24" rx="12" fill="white"/>
<path fill-rule="evenodd" clip-rule="evenodd" d="M7.98017 5.16663C6.91259 5.16663 6.0255 5.20468 5.30587 5.35196C4.5772 5.50108 3.97666 5.77068 3.52547 6.26495C3.07961 6.75339 2.83153 7.40491 2.68933 8.21273C2.5474 9.01911 2.50284 10.0315 2.50284 11.286C2.50284 11.7701 2.50202 12.2246 2.50125 12.651C2.4976 14.6675 2.4951 16.0538 2.58601 16.9579C2.64026 17.4974 2.7338 17.9552 2.93948 18.2841C3.05009 18.461 3.19699 18.6075 3.38774 18.7051C3.57507 18.8009 3.77285 18.8333 3.96217 18.8333C4.39469 18.8333 4.81408 18.5954 5.1526 18.3602C5.48307 18.1305 5.83094 17.8332 6.15992 17.5521L6.23778 17.4856C6.60106 17.1755 6.94226 16.8892 7.26245 16.679C7.59459 16.461 7.82806 16.3773 7.98017 16.3773C8.13228 16.3773 8.36575 16.461 8.69789 16.679C9.01808 16.8892 9.35928 17.1755 9.72256 17.4856L9.80041 17.5521C10.1294 17.8332 10.4773 18.1305 10.8077 18.3602C11.1463 18.5954 11.5657 18.8333 11.9982 18.8333C12.1875 18.8333 12.3853 18.8009 12.5726 18.7051C12.7634 18.6075 12.9102 18.461 13.0209 18.2841C13.2265 17.9552 13.3201 17.4974 13.3743 16.9579C13.4652 16.0538 13.4627 14.6675 13.4591 12.651C13.4583 12.2246 13.4575 11.7701 13.4575 11.286C13.4575 10.0315 13.4129 9.01911 13.271 8.21273C13.1288 7.40491 12.8807 6.75339 12.4349 6.26495C11.9837 5.77068 11.3831 5.50108 10.6545 5.35196C9.93484 5.20468 9.04775 5.16663 7.98017 5.16663ZM3.50284 11.286C3.50284 10.0414 3.5482 9.1019 3.67419 8.38609C3.79994 7.67172 3.99782 7.23077 4.26404 6.93913C4.52494 6.65332 4.9026 6.45521 5.50637 6.33165C6.11918 6.20624 6.91875 6.16663 7.98017 6.16663C9.04159 6.16663 9.84116 6.20624 10.454 6.33165C11.0577 6.45521 11.4354 6.65332 11.6963 6.93913C11.9625 7.23077 12.1604 7.67172 12.2861 8.38609C12.4121 9.1019 12.4575 10.0414 12.4575 11.286C12.4575 11.7819 12.4583 12.2438 12.459 12.6739C12.4624 14.6911 12.4647 16.0093 12.3793 16.8578C12.3268 17.3808 12.247 17.6356 12.173 17.7539C12.1438 17.8006 12.1243 17.8112 12.1171 17.8148C12.1065 17.8203 12.0749 17.8333 11.9982 17.8333C11.899 17.8333 11.7026 17.7642 11.3784 17.5389C11.0909 17.3392 10.78 17.0736 10.4386 16.7821L10.3718 16.725C10.0157 16.4211 9.62793 16.0934 9.24671 15.8431C8.87742 15.6006 8.43706 15.3773 7.98017 15.3773C7.52328 15.3773 7.08292 15.6006 6.71364 15.8431C6.33241 16.0934 5.94462 16.4211 5.58856 16.725L5.52173 16.7821L5.52169 16.7821C5.18033 17.0737 4.86941 17.3392 4.58199 17.5389C4.25777 17.7642 4.06132 17.8333 3.96217 17.8333C3.88549 17.8333 3.85379 17.8203 3.84319 17.8148C3.83601 17.8112 3.81652 17.8006 3.78732 17.7539C3.71337 17.6356 3.63358 17.3808 3.581 16.8578C3.49567 16.0093 3.4979 14.6911 3.50132 12.6739L3.50132 12.6739C3.50205 12.2438 3.50284 11.7819 3.50284 11.286ZM5.69499 9.64509C5.41885 9.64509 5.19499 9.86895 5.19499 10.1451C5.19499 10.4212 5.41885 10.6451 5.69499 10.6451H10.265C10.5411 10.6451 10.765 10.4212 10.765 10.1451C10.765 9.86895 10.5411 9.64509 10.265 9.64509H5.69499Z" fill="#951212"/>
</svg>
