<svg width="24" height="24" viewBox="0 0 24 24" fill="none" xmlns="http://www.w3.org/2000/svg">
<rect width="24" height="24" rx="12" fill="white"/>
<path fill-rule="evenodd" clip-rule="evenodd" d="M9.98019 5.16666C8.91261 5.16666 8.02551 5.20471 7.30588 5.35199C6.57721 5.50111 5.97667 5.77071 5.52549 6.26498C5.07962 6.75342 4.83154 7.40494 4.68935 8.21276C4.54741 9.01914 4.50285 10.0316 4.50285 11.286C4.50285 11.7701 4.50203 12.2247 4.50126 12.6511C4.49762 14.6675 4.49511 16.0538 4.58603 16.9579C4.64027 17.4974 4.73382 17.9553 4.93949 18.2841C5.05011 18.461 5.19701 18.6075 5.38775 18.7051C5.57508 18.801 5.77287 18.8333 5.96219 18.8333C6.3947 18.8333 6.81409 18.5954 7.15262 18.3602C7.48309 18.1306 7.83096 17.8333 8.15993 17.5521L8.2378 17.4856C8.60107 17.1755 8.94228 16.8893 9.26247 16.679C9.59461 16.461 9.82808 16.3773 9.98019 16.3773C10.1323 16.3773 10.3658 16.461 10.6979 16.679C11.0181 16.8893 11.3593 17.1755 11.7226 17.4856L11.8004 17.5521C12.1294 17.8333 12.4773 18.1306 12.8078 18.3602C13.1463 18.5954 13.5657 18.8333 13.9982 18.8333C14.1875 18.8333 14.3853 18.801 14.5726 18.7051C14.7634 18.6075 14.9103 18.461 15.0209 18.2841C15.2266 17.9553 15.3201 17.4974 15.3743 16.9579C15.4653 16.0538 15.4628 14.6675 15.4591 12.6511C15.4583 12.2247 15.4575 11.7701 15.4575 11.286C15.4575 10.0316 15.413 9.01914 15.271 8.21276C15.1288 7.40494 14.8807 6.75342 14.4349 6.26498C13.9837 5.77071 13.3832 5.50111 12.6545 5.35199C11.9349 5.20471 11.0478 5.16666 9.98019 5.16666ZM5.50285 11.286C5.50285 10.0414 5.54821 9.10193 5.67421 8.38612C5.79995 7.67175 5.99783 7.2308 6.26405 6.93916C6.52495 6.65335 6.90262 6.45524 7.50638 6.33168C8.11919 6.20627 8.91877 6.16666 9.98019 6.16666C11.0416 6.16666 11.8412 6.20627 12.454 6.33168C13.0578 6.45524 13.4354 6.65335 13.6963 6.93916C13.9625 7.2308 14.1604 7.67175 14.2862 8.38612C14.4122 9.10193 14.4575 10.0414 14.4575 11.286C14.4575 11.7819 14.4583 12.2438 14.459 12.674C14.4625 14.6911 14.4647 16.0093 14.3794 16.8579C14.3268 17.3808 14.247 17.6357 14.173 17.7539C14.1438 17.8006 14.1243 17.8112 14.1172 17.8149C14.1066 17.8203 14.0749 17.8333 13.9982 17.8333C13.899 17.8333 13.7026 17.7642 13.3784 17.539C13.0909 17.3392 12.78 17.0737 12.4386 16.7821L12.3718 16.725C12.0157 16.4211 11.6279 16.0934 11.2467 15.8431C10.8774 15.6007 10.4371 15.3773 9.98019 15.3773C9.52329 15.3773 9.08293 15.6007 8.71365 15.8431C8.33243 16.0934 7.94463 16.4211 7.58857 16.725L7.52175 16.7821L7.52171 16.7821C7.18035 17.0737 6.86943 17.3393 6.58201 17.539C6.25778 17.7642 6.06134 17.8333 5.96219 17.8333C5.8855 17.8333 5.85381 17.8203 5.84321 17.8149C5.83602 17.8112 5.81654 17.8006 5.78734 17.7539C5.71339 17.6357 5.6336 17.3808 5.58101 16.8579C5.49568 16.0093 5.49792 14.6911 5.50134 12.674L5.50134 12.6739C5.50207 12.2438 5.50285 11.7819 5.50285 11.286ZM7.69501 9.64512C7.41886 9.64512 7.19501 9.86898 7.19501 10.1451C7.19501 10.4213 7.41886 10.6451 7.69501 10.6451H12.265C12.5412 10.6451 12.765 10.4213 12.765 10.1451C12.765 9.86898 12.5412 9.64512 12.265 9.64512H7.69501Z" fill="#71B1A1"/>
</svg>
