<svg width="47" height="47" viewBox="0 0 47 47" fill="none" xmlns="http://www.w3.org/2000/svg">
<path d="M23.3807 46.7921C17.0774 46.7876 10.7741 46.7005 4.47071 46.8139C2.0337 46.8712 0.277881 44.6163 0.291024 42.6222C0.357491 31.6016 0.330228 20.5809 0.338122 9.54847C0.339372 7.80216 0.399194 6.06769 0.330138 4.33313C0.249745 2.06759 2.27808 0.0631388 4.59788 0.0765981C17.1107 0.132749 29.6236 0.129903 42.1366 0.115258C44.7493 0.105328 46.4701 2.18325 46.4684 4.50774C46.4476 17.1685 46.4503 29.841 46.4412 42.5018C46.4402 43.9059 45.9356 45.0619 44.8688 45.9697C44.1771 46.5592 43.4037 46.8064 42.4898 46.8058C36.1162 46.7894 29.7543 46.7966 23.3807 46.7921ZM22.7858 10.3551C22.5514 10.3785 22.3991 10.402 22.2351 10.4137C19.9737 10.6009 17.8292 11.1775 15.8718 12.3442C13.1291 13.9706 11.1005 16.211 10.3133 19.4081C10.1253 20.1631 9.87867 20.9417 10.089 21.7206C18.9699 21.727 27.7922 21.7333 36.6379 21.7396C36.6615 21.5745 36.685 21.4447 36.6851 21.3267C36.6396 19.4388 36.0315 17.7274 34.9899 16.1809C33.0002 13.2533 30.2013 11.5167 26.7807 10.7709C25.8787 10.5697 24.9649 10.4746 24.0629 10.3206C24.4384 9.49492 24.4152 9.11732 23.982 8.75123C23.6307 8.456 23.1152 8.46743 22.7635 8.78576C22.3649 9.15125 22.3646 9.55243 22.7858 10.3551ZM29.2725 32.4246C29.5656 32.118 29.5307 31.8112 29.5543 31.5281C29.637 30.655 29.4618 29.8053 29.2633 28.9556C28.8778 27.3388 29.3122 25.9822 30.4964 24.8385C30.8599 24.4848 31.2466 24.2962 31.7738 24.3084C33.1446 24.3448 34.5272 24.3104 35.8979 24.3232C36.5892 24.3355 37.0814 24.1116 37.246 23.3802C37.293 23.1442 37.4103 22.9673 37.633 22.8613C37.8322 22.767 38.09 22.6964 37.9965 22.3896C37.903 22.1181 37.6452 22.1533 37.4343 22.1532C37.2703 22.1531 37.118 22.153 36.9539 22.1528C27.9325 22.1464 18.9227 22.1399 9.90125 22.1335C9.6435 22.1333 9.38574 22.1331 9.13969 22.1447C8.96394 22.1564 8.8233 22.2271 8.79973 22.4159C8.7762 22.5457 8.83469 22.6755 8.9518 22.7464C9.18602 22.8999 9.42027 23.0063 9.50203 23.3485C9.64212 24.0566 10.134 24.3165 10.8487 24.3052C12.2547 24.2827 13.6606 24.2955 15.0666 24.2965C15.3829 24.2967 15.6875 24.2969 15.992 24.4741C18.1352 25.7146 20.1025 27.1791 21.8704 28.9267C22.9709 30.013 23.8604 31.2644 24.7148 32.563C26.2382 32.1865 27.7847 32.1758 29.2725 32.4246ZM23.3781 33.9897C23.3775 34.8275 23.377 35.559 23.3765 36.3024C23.3759 37.034 23.3754 37.7655 23.3749 38.4735C25.0385 38.6753 30.1702 38.6082 30.803 38.3962C30.8041 36.9685 30.8051 35.529 30.8061 34.054C28.3463 33.3325 25.9326 33.5078 23.3781 33.9897Z" fill="#951212"/>
<path d="M35.2211 20.3227C34.8578 20.4758 34.483 20.334 34.0026 20.428C33.8281 18.7288 33.4191 17.171 32.4242 15.8251C31.4527 14.5029 30.1997 13.5463 28.7709 12.8373C30.8679 13.0748 34.8724 16.5349 35.2211 20.3227Z" fill="#951212"/>
<path d="M23.9592 24.3735C25.6346 24.3747 27.2515 24.3759 28.9972 24.3771C28.0007 25.2378 27.3556 26.2521 26.8744 27.3845C26.6397 27.9271 26.1711 27.8205 25.7259 27.832C25.2807 27.8435 25.1168 27.5838 24.9999 27.2179C24.7077 26.2738 24.4272 25.3296 23.9592 24.3735Z" fill="#951212"/>
<path d="M23.1744 24.3849C23.2443 24.8333 23.3026 25.2345 23.3842 25.8245C22.7519 25.2931 22.2601 24.8798 21.663 24.3838C22.2253 24.3842 22.6588 24.3845 23.1744 24.3849Z" fill="#951212"/>
<path d="M25.6732 35.7614C25.6964 36.0328 25.3916 36.3865 25.0986 36.4217C24.8291 36.4569 24.4662 36.1617 24.4195 35.8667C24.3729 35.548 24.7129 35.1707 25.0292 35.1591C25.3222 35.1593 25.6617 35.4782 25.6732 35.7614Z" fill="#951212"/>
</svg>
