<svg width="49" height="41" viewBox="0 0 49 41" fill="none" xmlns="http://www.w3.org/2000/svg">
<rect x="0.220337" y="0.0740967" width="48" height="40" rx="10" transform="rotate(0.0409972 0.220337 0.0740967)" fill="#951212"/>
<path d="M32.5422 16.1389L27.5422 16.1353C27.2005 16.1351 26.9174 15.8516 26.9176 15.5099C26.9179 15.1682 27.2014 14.8851 27.5431 14.8853L32.5431 14.8889C32.8848 14.8892 33.1679 15.1727 33.1676 15.5144C33.1674 15.856 32.8839 16.1392 32.5422 16.1389Z" fill="white"/>
<path d="M19.2088 16.1293L15.8754 16.1269C15.5338 16.1267 15.2507 15.8431 15.2509 15.5015C15.2511 15.1598 15.5347 14.8767 15.8763 14.8769L19.2097 14.8793C19.5513 14.8795 19.8345 15.1631 19.8342 15.5047C19.834 15.8464 19.5504 16.1295 19.2088 16.1293Z" fill="white"/>
<path d="M22.54 19.0484C20.59 19.047 18.9995 17.4542 19.0009 15.5042C19.0023 13.5542 20.5951 11.9637 22.5451 11.9651C24.4951 11.9665 26.0856 13.5593 26.0842 15.5093C26.0828 17.4593 24.49 19.0498 22.54 19.0484ZM22.5442 13.2151C21.2775 13.2142 20.2518 14.2384 20.2509 15.5051C20.25 16.7718 21.2742 17.7975 22.5409 17.7984C23.8076 17.7993 24.8333 16.775 24.8342 15.5084C24.8351 14.2417 23.8109 13.216 22.5442 13.2151Z" fill="white"/>
<path d="M32.5356 25.3056L29.2022 25.3032C28.8606 25.3029 28.5774 25.0194 28.5777 24.6777C28.5779 24.3361 28.8615 24.0529 29.2031 24.0532L32.5365 24.0556C32.8781 24.0558 33.1613 24.3393 33.161 24.681C33.1608 25.0227 32.8772 25.3058 32.5356 25.3056Z" fill="white"/>
<path d="M20.869 25.2972L15.869 25.2937C15.5273 25.2934 15.2442 25.0099 15.2444 24.6682C15.2447 24.3265 15.5282 24.0434 15.8699 24.0437L20.8699 24.0472C21.2115 24.0475 21.4947 24.331 21.4944 24.6727C21.4942 25.0144 21.2106 25.2975 20.869 25.2972Z" fill="white"/>
<path d="M25.8668 28.2175C23.9168 28.2161 22.3263 26.6233 22.3277 24.6733C22.3291 22.7233 23.9219 21.1327 25.8719 21.1341C27.8219 21.1355 29.4124 22.7283 29.411 24.6783C29.4096 26.6283 27.8168 28.2189 25.8668 28.2175ZM25.871 22.3841C24.6043 22.3832 23.5786 23.4075 23.5777 24.6742C23.5768 25.9408 24.601 26.9666 25.8677 26.9675C27.1344 26.9684 28.1601 25.9441 28.161 24.6774C28.1619 23.4108 27.1376 22.385 25.871 22.3841Z" fill="white"/>
</svg>
