<svg width="47" height="48" viewBox="0 0 47 48" fill="none" xmlns="http://www.w3.org/2000/svg">
<path d="M0.639404 24C0.639404 10.7452 10.9998 0 23.7801 0C36.5603 0 46.9207 10.7452 46.9207 24C46.9207 37.2548 36.5603 48 23.7801 48C10.9998 48 0.639404 37.2548 0.639404 24Z" fill="#951212"/>
<path d="M31.4935 25V18.7485C31.4935 18.5894 31.4326 18.4368 31.3241 18.3243L28.2882 15.1757C28.1798 15.0632 28.0326 15 27.8792 15H16.6449C16.3254 15 16.0664 15.2686 16.0664 15.6V34.4C16.0664 34.7314 16.3254 35 16.6449 35H22.8158" stroke="white" stroke-width="1.4" stroke-linecap="round" stroke-linejoin="round"/>
<path d="M19.9233 23H27.6369M19.9233 19H23.7801M19.9233 27H22.8159" stroke="white" stroke-width="1.4" stroke-linecap="round" stroke-linejoin="round"/>
<path d="M27.9314 30.1133L28.808 28.1856C28.9205 27.9381 29.2456 27.9381 29.3581 28.1856L30.2347 30.1133L32.195 30.4243C32.4465 30.4642 32.5467 30.7998 32.3647 30.9923L30.9465 32.4917L31.2811 34.61C31.3241 34.882 31.0611 35.0895 30.836 34.961L29.083 33.9603L27.33 34.961C27.105 35.0895 26.842 34.882 26.885 34.61L27.2196 32.4917L25.8014 30.9923C25.6194 30.7998 25.7196 30.4642 25.9711 30.4243L27.9314 30.1133Z" stroke="white" stroke-width="1.4" stroke-linecap="round" stroke-linejoin="round"/>
<path d="M27.6368 15V18.4C27.6368 18.7314 27.8958 19 28.2154 19H31.4936" stroke="white" stroke-width="1.4" stroke-linecap="round" stroke-linejoin="round"/>
</svg>
