<svg width="47" height="48" viewBox="0 0 47 48" fill="none" xmlns="http://www.w3.org/2000/svg">
<path d="M0.222534 24C0.222534 10.7452 10.583 0 23.3632 0C36.1434 0 46.5039 10.7452 46.5039 24C46.5039 37.2548 36.1434 48 23.3632 48C10.583 48 0.222534 37.2548 0.222534 24Z" fill="#7E7E7E"/>
<path d="M27.333 28.1172L31.5489 32.4897L27.333 28.1172Z" fill="#7E7E7E"/>
<path d="M27.333 28.1172L31.5489 32.4897" stroke="#F6F6F6" stroke-width="1.5" stroke-linecap="round" stroke-linejoin="round"/>
<path d="M14.6854 22.4956C14.6854 26.6352 17.9211 29.9911 21.9126 29.9911C23.9118 29.9911 25.7215 29.1493 27.0298 27.7887C28.3337 26.4329 29.1398 24.5618 29.1398 22.4956C29.1398 18.3559 25.9041 15 21.9126 15C17.9211 15 14.6854 18.3559 14.6854 22.4956Z" fill="#7E7E7E" stroke="#F6F6F6" stroke-width="1.5" stroke-linecap="round" stroke-linejoin="round"/>
</svg>
