<svg width="48" height="48" viewBox="0 0 48 48" fill="none" xmlns="http://www.w3.org/2000/svg">
<path d="M0 24C0 10.7452 10.7452 0 24 0C37.2548 0 48 10.7452 48 24C48 37.2548 37.2548 48 24 48C10.7452 48 0 37.2548 0 24Z" fill="#951212"/>
<path fill-rule="evenodd" clip-rule="evenodd" d="M25.7132 18.7141C25.7132 18.0436 25.1701 17.5 24.5001 17.5C23.8302 17.5 23.287 18.0436 23.287 18.7141V23.2859H18.7131C18.0431 23.2859 17.5 23.8295 17.5 24.5C17.5 25.1705 18.0431 25.7141 18.7131 25.7141H23.287V30.2859C23.287 30.9564 23.8302 31.5 24.5001 31.5C25.1701 31.5 25.7132 30.9564 25.7132 30.2859V25.7141H30.2869C30.9569 25.7141 31.5 25.1705 31.5 24.5C31.5 23.8295 30.9569 23.2859 30.2869 23.2859H25.7132V18.7141Z" fill="white"/>
</svg>
