<svg width="48" height="48" viewBox="0 0 48 48" fill="none" xmlns="http://www.w3.org/2000/svg">
<path d="M0 24C0 10.7452 10.7452 0 24 0C37.2548 0 48 10.7452 48 24C48 37.2548 37.2548 48 24 48C10.7452 48 0 37.2548 0 24Z" fill="#7E7E7E"/>
<path d="M32 25V18.7485C32 18.5894 31.9368 18.4368 31.8243 18.3243L28.6757 15.1757C28.5632 15.0632 28.4106 15 28.2515 15H16.6C16.2686 15 16 15.2686 16 15.6V34.4C16 34.7314 16.2686 35 16.6 35H23" stroke="white" stroke-width="1.4" stroke-linecap="round" stroke-linejoin="round"/>
<path d="M20 23H28M20 19H24M20 27H23" stroke="white" stroke-width="1.4" stroke-linecap="round" stroke-linejoin="round"/>
<path d="M28.3056 30.1133L29.2147 28.1856C29.3314 27.9381 29.6686 27.9381 29.7853 28.1856L30.6944 30.1133L32.7275 30.4243C32.9884 30.4642 33.0923 30.7998 32.9035 30.9923L31.4326 32.4917L31.7797 34.61C31.8243 34.882 31.5515 35.0895 31.3181 34.961L29.5 33.9603L27.6819 34.961C27.4485 35.0895 27.1757 34.882 27.2203 34.61L27.5674 32.4917L26.0965 30.9923C25.9077 30.7998 26.0116 30.4642 26.2725 30.4243L28.3056 30.1133Z" stroke="white" stroke-width="1.4" stroke-linecap="round" stroke-linejoin="round"/>
<path d="M28 15V18.4C28 18.7314 28.2686 19 28.6 19H32" stroke="white" stroke-width="1.4" stroke-linecap="round" stroke-linejoin="round"/>
</svg>
