<svg width="33" height="33" viewBox="0 0 33 33" fill="none" xmlns="http://www.w3.org/2000/svg">
<path d="M16.5126 32.3827C12.0054 32.3827 7.49813 32.3254 2.9909 32.4072C1.24833 32.4481 -0.00833611 30.8855 4.16397e-05 29.5028C0.0419304 21.8612 0.0167971 14.2196 0.0167971 6.56984C0.0167971 5.35896 0.0586859 4.15627 0.00841939 2.95358C-0.0502249 1.38272 1.39913 -0.00814566 3.05792 3.59146e-05C12.0054 0.0327622 20.9528 0.0245806 29.9002 0.00821749C31.7685 3.59149e-05 33 1.43999 33 3.05176C32.9916 11.8306 33 20.6176 33 29.3964C33 30.37 32.6398 31.1718 31.8774 31.8018C31.3831 32.2109 30.8302 32.3827 30.1767 32.3827C25.6192 32.3745 21.0701 32.3827 16.5126 32.3827ZM16.0686 7.118C15.901 7.13437 15.7921 7.15073 15.6748 7.15891C14.0579 7.28982 12.5248 7.69071 11.1257 8.50069C9.1653 9.62974 7.71595 11.1842 7.15464 13.4014C7.0206 13.9251 6.84466 14.4651 6.99546 15.005C13.3458 15.005 19.6542 15.005 25.9794 15.005C25.9962 14.8905 26.013 14.8005 26.013 14.7187C25.9794 13.4096 25.5438 12.2233 24.7982 11.1515C23.374 9.12249 21.3717 7.9198 18.9254 7.40436C18.2803 7.26527 17.6268 7.19982 16.9817 7.09346C17.2498 6.52075 17.2331 6.25894 16.9231 6.00531C16.6718 5.80077 16.3031 5.80895 16.0518 6.02985C15.767 6.28348 15.767 6.56166 16.0686 7.118ZM20.7182 22.4175C20.9277 22.2048 20.9025 21.9921 20.9193 21.7957C20.9779 21.1903 20.8523 20.6012 20.7098 20.0122C20.4334 18.8913 20.7434 17.9504 21.5895 17.1568C21.8492 16.9113 22.1257 16.7804 22.5027 16.7886C23.4829 16.8132 24.4715 16.7886 25.4516 16.7968C25.9459 16.805 26.2978 16.6495 26.4151 16.1423C26.4486 15.9786 26.5324 15.8559 26.6916 15.7823C26.834 15.7168 27.0183 15.6677 26.9513 15.455C26.8842 15.2668 26.6999 15.2914 26.5491 15.2914C26.4318 15.2914 26.3229 15.2914 26.2056 15.2914C19.7548 15.2914 13.3123 15.2914 6.86142 15.2914C6.67711 15.2914 6.4928 15.2914 6.31687 15.2996C6.1912 15.3078 6.09067 15.3568 6.07391 15.4877C6.05716 15.5777 6.09904 15.6677 6.18282 15.7168C6.35038 15.8232 6.51793 15.8968 6.57658 16.1341C6.67711 16.625 7.02897 16.805 7.54002 16.7968C8.54535 16.7804 9.55068 16.7886 10.556 16.7886C10.7822 16.7886 11 16.7886 11.2179 16.9113C12.751 17.7704 14.1584 18.7849 15.4235 19.9958C16.211 20.7485 16.8477 21.6157 17.4593 22.5157C18.5484 22.2539 19.6542 22.2457 20.7182 22.4175ZM16.5042 23.5057C16.5042 24.0866 16.5042 24.5938 16.5042 25.1093C16.5042 25.6165 16.5042 26.1238 16.5042 26.6147C17.6939 26.7538 21.3633 26.7047 21.8157 26.5574C21.8157 25.5674 21.8157 24.5693 21.8157 23.5466C20.0564 23.0475 18.3306 23.1702 16.5042 23.5057Z" fill="#951212"/>
<path d="M24.9658 14.0233C24.706 14.1297 24.438 14.0315 24.0945 14.0969C23.9688 12.9188 23.6756 11.8388 22.9635 10.9061C22.2681 9.98978 21.3717 9.32708 20.3496 8.83618C21.8492 8.99981 24.7144 11.397 24.9658 14.0233Z" fill="#951212"/>
<path d="M16.9148 16.8376C18.1128 16.8376 19.2689 16.8376 20.5172 16.8376C19.8051 17.4349 19.3443 18.1385 19.0009 18.9239C18.8333 19.3003 18.4982 19.2267 18.1798 19.2348C17.8615 19.243 17.7442 19.063 17.6604 18.8094C17.451 18.1549 17.2499 17.5004 16.9148 16.8376Z" fill="#951212"/>
<path d="M16.3536 16.8459C16.4038 17.1568 16.4457 17.435 16.5044 17.8441C16.052 17.4759 15.7001 17.1896 15.2728 16.8459C15.675 16.8459 15.9849 16.8459 16.3536 16.8459Z" fill="#951212"/>
<path d="M18.1462 24.7331C18.163 24.9212 17.9452 25.1667 17.7357 25.1912C17.543 25.2158 17.2833 25.0112 17.2498 24.8067C17.2163 24.5858 17.4593 24.324 17.6855 24.3158C17.8949 24.3158 18.1379 24.5367 18.1462 24.7331Z" fill="#951212"/>
</svg>
