<svg width="1074" height="65" viewBox="0 0 1074 65" fill="none" xmlns="http://www.w3.org/2000/svg">
<path d="M423.624 63.7713C415.265 63.7713 406.906 63.6618 398.547 63.8183C395.315 63.8965 392.985 60.9079 393 58.2635C393.078 43.6488 393.031 29.0341 393.031 14.4038C393.031 12.088 393.109 9.78782 393.016 7.48765C392.907 4.48335 395.595 1.82329 398.671 1.83894C415.265 1.90153 431.858 1.88588 448.452 1.85458C451.917 1.83894 454.201 4.59288 454.201 7.67542C454.185 24.4651 454.201 41.2704 454.201 58.06C454.201 59.9221 453.532 61.4555 452.119 62.6604C451.202 63.4428 450.176 63.7713 448.965 63.7713C440.512 63.7557 432.076 63.7713 423.624 63.7713ZM422.8 15.4522C422.489 15.4835 422.287 15.5148 422.07 15.5304C419.071 15.7808 416.228 16.5475 413.633 18.0966C409.998 20.2559 407.31 23.2289 406.269 27.4694C406.02 28.4708 405.694 29.5035 405.974 30.5363C417.751 30.5363 429.45 30.5363 441.181 30.5363C441.212 30.3172 441.243 30.1451 441.243 29.9886C441.181 27.485 440.373 25.2162 438.99 23.1663C436.348 19.2858 432.635 16.9856 428.098 15.9998C426.902 15.7338 425.69 15.6086 424.494 15.4052C424.991 14.3099 424.96 13.8092 424.385 13.3241C423.919 12.9329 423.235 12.9486 422.769 13.3711C422.241 13.8561 422.241 14.3882 422.8 15.4522ZM431.423 44.7128C431.812 44.306 431.765 43.8991 431.796 43.5236C431.905 42.3657 431.672 41.2391 431.408 40.1125C430.895 37.9688 431.47 36.1693 433.039 34.6515C433.521 34.1821 434.033 33.9318 434.733 33.9474C436.55 33.9943 438.384 33.9474 440.202 33.9631C441.118 33.9787 441.771 33.6814 441.988 32.7113C442.051 32.3983 442.206 32.1636 442.501 32.0228C442.765 31.8976 443.107 31.8037 442.983 31.3969C442.859 31.037 442.517 31.0839 442.237 31.0839C442.02 31.0839 441.818 31.0839 441.6 31.0839C429.636 31.0839 417.688 31.0839 405.725 31.0839C405.383 31.0839 405.041 31.0839 404.715 31.0996C404.482 31.1152 404.296 31.2091 404.264 31.4595C404.233 31.6316 404.311 31.8037 404.466 31.8976C404.777 32.101 405.088 32.2418 405.197 32.6956C405.383 33.6345 406.036 33.9787 406.983 33.9631C408.848 33.9318 410.712 33.9474 412.577 33.9474C412.996 33.9474 413.4 33.9474 413.804 34.1821C416.647 35.8251 419.258 37.7654 421.604 40.0812C423.064 41.5207 424.245 43.1794 425.379 44.9006C427.399 44.3999 429.45 44.3842 431.423 44.7128ZM423.608 46.7939C423.608 47.9049 423.608 48.875 423.608 49.8608C423.608 50.8309 423.608 51.8011 423.608 52.7399C425.814 53.0059 432.62 52.9121 433.459 52.6304C433.459 50.7371 433.459 48.8281 433.459 46.8722C430.196 45.9177 426.995 46.1524 423.608 46.7939Z" fill="#F7F9FB"/>
<path d="M487.691 34.3282C487.249 33.9677 486.87 33.6285 486.47 33.3105C484.301 31.6144 481.859 31.3176 479.291 32.0172C477.354 32.5472 475.986 33.8829 475.123 35.6638C473.944 38.0384 473.775 40.5614 474.533 43.0843C476.133 48.4059 482.807 50.2716 486.975 46.5826C487.228 46.3494 487.396 46.0313 487.964 45.9253C488.722 46.7098 489.564 47.579 490.406 48.4271C490.617 48.6391 490.827 48.8299 490.87 49.1267C487.606 53.579 478.133 54.2575 473.354 49.89C468.091 45.0773 467.797 36.1515 472.66 30.9783C477.523 25.8476 486.954 26.2292 490.996 31.1055C490.638 31.8052 489.922 32.2292 489.375 32.7805C488.87 33.3105 488.301 33.7769 487.691 34.3282Z" fill="#F7F9FB"/>
<path d="M499.374 52.1798C497.922 52.1798 496.554 52.1798 495.206 52.1798C494.89 50.8441 494.764 16.7098 495.08 13.5084C496.511 13.4448 497.985 13.4024 499.606 13.5508C499.606 19.36 499.606 25.1268 499.606 30.8935C500.196 30.8723 500.343 30.5119 500.532 30.2575C503.143 26.9289 509.395 26.4412 512.7 28.731C515.1 30.3635 516.195 32.6957 516.3 35.4942C516.405 38.8017 516.342 42.0879 516.363 45.3953C516.363 47.6002 516.363 49.784 516.363 52.0737C514.827 52.3706 513.374 52.2646 511.942 52.1798C511.711 51.5437 511.816 50.9501 511.816 50.3776C511.795 46.3918 511.795 42.3847 511.816 38.3988C511.816 37.4024 511.711 36.4271 511.458 35.473C510.869 33.1833 509.079 31.7416 506.722 31.6144C503.122 31.4024 500.532 33.4165 499.796 36.9995C499.606 37.9112 499.564 38.8229 499.564 39.7557C499.585 43.3388 499.585 46.943 499.564 50.526C499.564 51.0349 499.711 51.5649 499.374 52.1798Z" fill="#F7F9FB"/>
<path d="M546.152 41.7274C539.647 41.7274 533.331 41.7274 526.974 41.7274C526.7 43.1903 527.205 44.3139 527.921 45.374C530.426 49.0631 536.447 50.2079 540.215 46.6037C540.657 46.1797 541.078 45.7132 541.584 45.1832C542.72 46.0525 543.815 46.8793 544.952 47.7486C544.11 49.1903 542.868 50.1019 541.542 50.9076C538.447 52.7945 535.015 53.2397 531.563 52.6037C526.931 51.7344 523.9 48.8086 522.532 44.2715C521.479 40.8369 521.563 37.4023 523.163 34.1161C525.416 29.473 530.237 26.9288 535.521 27.3316C541.499 27.7768 544.805 31.7627 545.71 36.5118C545.752 36.745 545.815 36.9571 545.857 37.1903C546.089 38.632 546.152 40.0525 546.152 41.7274ZM541.099 37.9323C541.205 34.2645 539.478 32.0171 536.152 31.1691C534.573 30.7662 533.079 30.9571 531.584 31.4447C529.352 32.1867 526.721 34.9641 526.91 37.9323C531.605 37.9323 536.279 37.9323 541.099 37.9323Z" fill="#F7F9FB"/>
<path d="M553.436 31.9324C551.583 31.9324 549.983 31.9324 548.341 31.9324C548.131 30.5755 548.278 29.3246 548.215 27.8829C549.941 27.8829 551.583 27.8829 553.415 27.8829C553.415 27.0984 553.415 26.4836 553.415 25.8688C553.436 23.6638 553.267 21.4589 553.646 19.2963C554.067 16.8582 554.973 14.6956 557.393 13.6355C559.836 12.5543 562.383 12.6603 564.993 13.0843C565.098 14.526 564.783 15.7557 564.614 16.9854C564.193 17.367 563.835 17.049 563.456 16.9642C562.656 16.8158 561.856 16.837 561.057 16.9218C559.688 17.0702 558.846 17.8334 558.488 19.1267C558.299 19.8476 558.151 20.6108 558.13 21.3529C558.088 23.4306 558.109 25.5083 558.109 27.6921C559.878 28.0313 561.646 27.6709 563.477 27.9253C563.477 29.2186 563.477 30.4695 563.477 31.89C561.751 31.89 560.004 31.89 558.109 31.89C558.109 38.738 558.109 45.4165 558.109 52.1797C556.488 52.2645 555.036 52.3493 553.436 52.1373C553.436 45.3953 553.436 38.7804 553.436 31.9324Z" fill="#F7F9FB"/>
<path d="M568.677 27.904C570.067 27.904 571.351 27.904 572.782 27.904C573.119 28.9429 572.803 30.0454 573.014 31.3175C575.035 28.6461 577.688 27.3528 580.866 27.2892C584.129 27.2256 586.592 28.7309 588.298 31.6567C589.161 30.3846 590.066 29.2609 591.329 28.5401C594.129 26.95 597.055 26.9076 599.981 27.9676C602.234 28.7733 603.602 30.5118 604.381 32.7804C604.971 34.4977 605.055 36.2998 605.139 38.0807C605.16 38.4199 605.139 38.7804 605.139 39.1196C605.139 43.4023 605.139 47.6849 605.139 52.0736C603.645 52.3917 602.171 52.1797 600.781 52.2009C600.403 51.7132 600.55 51.2256 600.55 50.7804C600.529 46.8369 600.529 42.9146 600.55 38.9712C600.55 37.7415 600.466 36.533 600.213 35.3457C599.75 33.1196 598.276 31.8263 596.045 31.5931C592.087 31.1903 589.477 33.5436 589.224 37.8263C589.14 39.3316 589.182 40.8369 589.182 42.3422C589.182 45.586 589.182 48.8086 589.182 52.116C587.666 52.3281 586.256 52.2009 584.887 52.2009C584.403 51.8616 584.55 51.4164 584.55 51.0348C584.55 47.2185 584.571 43.4023 584.529 39.5648C584.529 37.9535 584.487 36.321 584.066 34.7309C583.624 33.0984 582.593 32.1655 581.035 31.7415C578.466 31.0418 576.045 32.0171 574.614 34.2645C573.624 35.8334 573.225 37.5295 573.225 39.374C573.225 43.0206 573.225 46.6673 573.225 50.3139C573.225 50.8864 573.225 51.4588 573.225 52.0948C571.646 52.2221 570.193 52.2645 568.656 52.0736C568.677 44.0171 568.677 36.003 568.677 27.904Z" fill="#F7F9FB"/>
<path d="M627.475 36.8935C627.981 33.9465 625.854 30.8087 621.539 30.9783C619.602 31.0419 617.813 31.6143 616.255 32.8016C615.855 33.1196 615.413 33.374 615.118 33.586C614.171 32.632 613.286 31.7627 612.36 30.8299C614.002 29.1762 616.086 28.3069 618.339 27.7557C621.076 27.0772 623.791 27.0772 626.465 28.0737C630.044 29.3882 631.833 31.8263 631.875 35.6638C631.917 39.0136 631.896 42.3846 631.875 45.7345C631.875 47.8546 631.854 49.9959 632.044 52.1797C630.633 52.3069 629.391 52.2857 628.044 52.2009C627.686 51.1408 627.981 50.0383 627.749 49.0419C627.223 49.0207 627.117 49.4235 626.907 49.6567C624.991 51.8193 622.591 52.7945 619.728 52.8369C618.044 52.8581 616.444 52.6461 614.865 51.9465C609.876 49.6991 609.708 42.7239 613.581 39.8405C615.686 38.2504 618.107 37.6567 620.633 37.3175C622.528 37.0631 624.423 37.1691 626.317 37.1479C626.717 37.1055 627.138 37.2327 627.475 36.8935ZM627.496 40.5825C625.307 40.5613 623.202 40.4765 621.097 40.7945C620.002 40.9641 618.97 41.2822 617.96 41.685C616.381 42.321 615.434 43.7839 615.518 45.3104C615.602 47.1125 616.528 48.2574 618.36 48.8087C619.539 49.1479 620.76 49.1267 621.96 48.9783C624.549 48.6815 626.275 47.2186 627.16 44.7804C627.602 43.4871 627.623 42.109 627.496 40.5825Z" fill="#F7F9FB"/>
<path d="M651.664 52.1161C648.738 52.9854 645.938 53.1974 643.18 51.9041C641.77 51.2469 641.033 50.0384 640.675 48.5543C640.38 47.367 640.338 46.1585 640.338 44.9289C640.338 41.2186 640.338 37.5084 640.338 33.7981C640.338 33.2257 640.338 32.6532 640.338 31.9536C638.57 31.9536 636.928 31.9536 635.18 31.9536C634.991 30.5331 635.012 29.2398 635.159 27.7981C636.886 27.7981 638.528 27.7981 640.317 27.7981C640.317 25.5296 640.317 23.4094 640.317 21.1409C641.917 21.0561 643.369 21.0137 644.948 21.1621C644.948 23.3458 644.948 25.466 644.948 27.7557C647.18 27.7557 649.285 27.7557 651.474 27.7557C651.474 29.155 651.474 30.4059 651.474 31.8264C649.39 31.8264 647.285 31.8264 645.39 31.8264C644.864 32.2716 644.969 32.632 644.969 32.9501C644.969 36.4271 644.948 39.9041 644.969 43.3812C644.969 44.42 645.012 45.4589 645.327 46.4766C645.685 47.579 646.38 48.1939 647.538 48.3847C648.885 48.5967 650.169 48.4483 651.496 47.8123C651.832 49.254 651.58 50.5472 651.664 52.1161Z" fill="#F7F9FB"/>
<path d="M680.231 41.7699C673.705 41.7699 667.369 41.7699 660.885 41.7699C661.032 44.9289 662.674 46.9006 665.263 48.0031C669.326 49.7628 672.779 48.6179 675.6 45.2469C676.863 45.9253 677.874 46.8582 678.926 47.6851C678.884 48.3211 678.4 48.6179 678.063 48.9783C673.895 53.3882 665.6 54.0667 661.074 50.6745C658.569 48.7875 656.948 46.3282 656.337 43.254C655.264 37.8264 656.443 33.1197 660.969 29.6427C664.821 26.6957 671.032 26.4624 675.116 29.0702C676.863 30.1939 678.105 31.7628 678.905 33.6709C680 36.1939 680.358 38.8017 680.231 41.7699ZM661.032 37.9324C663.706 38.1656 673.937 38.102 675.242 37.8476C675.389 37.2116 675.221 36.5967 675.095 36.0031C674.526 33.4589 672.99 31.8688 670.463 31.2116C668.969 30.8299 667.516 30.9147 666.063 31.3176C663.2 32.1232 661.032 34.9642 661.032 37.9324Z" fill="#F7F9FB"/>
<path d="M439.301 28.6586C438.819 28.862 438.322 28.6743 437.685 28.7994C437.452 26.5462 436.908 24.4808 435.587 22.697C434.298 20.9444 432.635 19.677 430.74 18.7382C433.521 19.0511 438.835 23.6358 439.301 28.6586Z" fill="#F7F9FB"/>
<path d="M424.37 34.0414C426.591 34.0414 428.736 34.0414 431.051 34.0414C429.73 35.1836 428.875 36.5293 428.238 38.0315C427.928 38.7512 427.306 38.6104 426.716 38.6261C426.125 38.6417 425.908 38.2975 425.752 37.8124C425.364 36.5606 424.991 35.3088 424.37 34.0414Z" fill="#F7F9FB"/>
<path d="M423.328 34.057C423.422 34.6516 423.499 35.1836 423.608 35.966C422.769 35.2619 422.117 34.7142 421.324 34.057C422.07 34.057 422.645 34.057 423.328 34.057Z" fill="#F7F9FB"/>
<path d="M426.654 49.1412C426.685 49.501 426.281 49.9705 425.892 50.0174C425.535 50.0644 425.053 49.6732 424.991 49.282C424.929 48.8595 425.38 48.3588 425.799 48.3431C426.187 48.3431 426.638 48.7656 426.654 49.1412Z" fill="#F7F9FB"/>
</svg>
