<svg width="51" height="49" viewBox="0 0 51 49" fill="none" xmlns="http://www.w3.org/2000/svg">
<path d="M0.694946 24.4655C0.694946 11.3576 11.7536 0.731506 25.3952 0.731506V0.731506C39.0368 0.731506 50.0955 11.3576 50.0955 24.4655V24.4655C50.0955 37.5734 39.0368 48.1995 25.3952 48.1995V48.1995C11.7536 48.1995 0.694946 37.5734 0.694946 24.4655V24.4655Z" fill="#951212"/>
<path d="M29.6325 28.5371L34.1325 32.8611" stroke="#F6F6F6" stroke-width="1.5" stroke-linecap="round" stroke-linejoin="round"/>
<path d="M16.1326 22.9777C16.1326 27.0715 19.5864 30.3902 23.8469 30.3902C25.9808 30.3902 27.9124 29.5577 29.309 28.2122C30.7008 26.8714 31.5612 25.0211 31.5612 22.9777C31.5612 18.8839 28.1074 15.5652 23.8469 15.5652C19.5864 15.5652 16.1326 18.8839 16.1326 22.9777Z" stroke="#F6F6F6" stroke-width="1.5" stroke-linecap="round" stroke-linejoin="round"/>
</svg>
