<svg width="47" height="47" viewBox="0 0 47 47" fill="none" xmlns="http://www.w3.org/2000/svg">
<path d="M23.0927 46.7021C16.7894 46.7021 10.4861 46.6195 4.18274 46.7375C1.74577 46.7965 -0.011658 44.5428 5.82327e-05 42.5487C0.0586392 31.5281 0.0234906 20.5074 0.0234906 9.47497C0.0234906 7.72866 0.0820716 5.99415 0.0117744 4.25964C-0.070239 1.99415 1.95666 -0.0117476 4.27647 5.17958e-05C16.7894 0.0472494 29.3023 0.03545 41.8152 0.0118512C44.4279 5.17962e-05 46.1502 2.07675 46.1502 4.40123C46.1385 17.062 46.1502 29.7345 46.1502 42.3953C46.1502 43.7994 45.6464 44.9558 44.5802 45.8643C43.8889 46.4543 43.1157 46.7021 42.2018 46.7021C35.8282 46.6903 29.4663 46.7021 23.0927 46.7021ZM22.4717 10.2655C22.2374 10.2891 22.0851 10.3127 21.9211 10.3245C19.6598 10.5133 17.5158 11.0915 15.5592 12.2596C12.8176 13.8879 10.7907 16.1298 10.0057 19.3275C9.81823 20.0826 9.57219 20.8614 9.78308 21.6402C18.664 21.6402 27.4863 21.6402 36.332 21.6402C36.3554 21.475 36.3789 21.3452 36.3789 21.2272C36.332 19.3393 35.7228 17.6284 34.68 16.0826C32.6883 13.1564 29.8881 11.4219 26.467 10.6785C25.5648 10.4779 24.6509 10.3835 23.7488 10.2301C24.1237 9.40417 24.1003 9.0266 23.6668 8.66081C23.3153 8.36583 22.7998 8.37763 22.4483 8.69621C22.0499 9.06199 22.0499 9.46317 22.4717 10.2655ZM28.9742 32.3304C29.2671 32.0236 29.232 31.7168 29.2554 31.4337C29.3374 30.5605 29.1617 29.7109 28.9625 28.8614C28.5759 27.2449 29.0094 25.8879 30.1927 24.7434C30.5559 24.3894 30.9425 24.2006 31.4698 24.2124C32.8406 24.2478 34.2231 24.2124 35.5939 24.2242C36.2851 24.236 36.7772 24.0118 36.9412 23.2803C36.9881 23.0443 37.1053 22.8673 37.3279 22.7611C37.527 22.6667 37.7848 22.5959 37.6911 22.2891C37.5973 22.0177 37.3396 22.0531 37.1287 22.0531C36.9647 22.0531 36.8124 22.0531 36.6483 22.0531C27.6269 22.0531 18.6171 22.0531 9.59563 22.0531C9.33787 22.0531 9.08011 22.0531 8.83407 22.0649C8.65833 22.0767 8.51774 22.1475 8.4943 22.3363C8.47087 22.4661 8.52945 22.5959 8.64661 22.6667C8.88094 22.8201 9.11526 22.9263 9.19728 23.2685C9.33787 23.9764 9.82995 24.236 10.5446 24.2242C11.9506 24.2006 13.3565 24.2124 14.7625 24.2124C15.0788 24.2124 15.3834 24.2124 15.688 24.3894C17.8321 25.6284 19.8004 27.0915 21.5696 28.8378C22.6709 29.9233 23.5613 31.1741 24.4166 32.472C25.9397 32.0944 27.4863 32.0826 28.9742 32.3304ZM23.081 33.8997C23.081 34.7375 23.081 35.4691 23.081 36.2124C23.081 36.944 23.081 37.6755 23.081 38.3835C24.7447 38.5841 29.8764 38.5133 30.509 38.3009C30.509 36.8732 30.509 35.4337 30.509 33.9587C28.0486 33.239 25.6351 33.416 23.081 33.8997Z" fill="#951212"/>
<path d="M34.9144 20.2242C34.5512 20.3776 34.1762 20.236 33.6959 20.3304C33.5201 18.6313 33.1101 17.0738 32.1142 15.7287C31.1418 14.4071 29.8881 13.4514 28.4587 12.7434C30.5559 12.9794 34.5629 16.4366 34.9144 20.2242Z" fill="#951212"/>
<path d="M23.6553 24.2832C25.3307 24.2832 26.9475 24.2832 28.6932 24.2832C27.6974 25.1446 27.053 26.1593 26.5726 27.2921C26.3383 27.8348 25.8696 27.7286 25.4244 27.7404C24.9792 27.7522 24.8152 27.4926 24.698 27.1269C24.4051 26.1829 24.1239 25.239 23.6553 24.2832Z" fill="#951212"/>
<path d="M22.8703 24.295C22.9406 24.7434 22.9992 25.1446 23.0812 25.7346C22.4485 25.2036 21.9564 24.7906 21.3589 24.295C21.9213 24.295 22.3548 24.295 22.8703 24.295Z" fill="#951212"/>
<path d="M25.3774 35.6698C25.4008 35.9411 25.0962 36.2951 24.8033 36.3305C24.5338 36.3659 24.1706 36.0709 24.1237 35.776C24.0769 35.4574 24.4166 35.0798 24.733 35.068C25.0259 35.068 25.3657 35.3866 25.3774 35.6698Z" fill="#951212"/>
</svg>
