<svg width="48" height="48" viewBox="0 0 48 48" fill="none" xmlns="http://www.w3.org/2000/svg">
<path d="M0 24C0 10.7452 10.7452 0 24 0C37.2548 0 48 10.7452 48 24C48 37.2548 37.2548 48 24 48C10.7452 48 0 37.2548 0 24Z" fill="#951212"/>
<path d="M28.1172 28.1172L32.4896 32.4897" stroke="#F6F6F6" stroke-width="1.5" stroke-linecap="round" stroke-linejoin="round"/>
<path d="M15 22.4956C15 26.6352 18.3559 29.9911 22.4956 29.9911C24.569 29.9911 26.4459 29.1493 27.8028 27.7887C29.1551 26.4329 29.9911 24.5618 29.9911 22.4956C29.9911 18.3559 26.6352 15 22.4956 15C18.3559 15 15 18.3559 15 22.4956Z" stroke="#F6F6F6" stroke-width="1.5" stroke-linecap="round" stroke-linejoin="round"/>
</svg>
