<svg width="409" height="142" viewBox="0 0 409 142" fill="none" xmlns="http://www.w3.org/2000/svg">
<path d="M91.6236 101.932C83.2647 101.932 74.9058 101.823 66.5468 101.979C63.3151 102.058 60.9845 99.069 61.0001 96.4246C61.0778 81.8099 61.0312 67.1953 61.0312 52.5649C61.0312 50.2491 61.1088 47.9489 61.0156 45.6488C60.9069 42.6445 63.5948 39.9844 66.6711 40.0001C83.2647 40.0627 99.8583 40.047 116.452 40.0157C119.917 40.0001 122.201 42.754 122.201 45.8365C122.185 62.6262 122.201 79.4315 122.201 96.2212C122.201 98.0832 121.532 99.6167 120.119 100.822C119.202 101.604 118.176 101.932 116.965 101.932C108.512 101.917 100.076 101.932 91.6236 101.932ZM90.8002 53.6133C90.4894 53.6446 90.2874 53.6759 90.0699 53.6915C87.0713 53.9419 84.228 54.7086 81.6333 56.2577C77.9976 58.4171 75.3097 61.3901 74.2687 65.6305C74.0201 66.6319 73.6939 67.6647 73.9735 68.6974C85.7506 68.6974 97.45 68.6974 109.181 68.6974C109.212 68.4783 109.243 68.3062 109.243 68.1497C109.181 65.6462 108.373 63.3773 106.99 61.3275C104.348 57.4469 100.635 55.1468 96.0983 54.161C94.902 53.895 93.6901 53.7698 92.4937 53.5664C92.9909 52.471 92.9598 51.9703 92.385 51.4853C91.9188 51.0941 91.2352 51.1097 90.7691 51.5322C90.2408 52.0173 90.2408 52.5493 90.8002 53.6133ZM99.4232 82.8739C99.8117 82.4671 99.7651 82.0603 99.7961 81.6847C99.9049 80.5268 99.6718 79.4002 99.4077 78.2736C98.895 76.1299 99.4699 74.3305 101.039 72.8127C101.521 72.3432 102.033 72.0929 102.733 72.1085C104.55 72.1555 106.384 72.1085 108.202 72.1242C109.118 72.1398 109.771 71.8425 109.988 70.8724C110.051 70.5594 110.206 70.3247 110.501 70.1839C110.765 70.0587 111.107 69.9648 110.983 69.558C110.859 69.1981 110.517 69.2451 110.237 69.2451C110.02 69.2451 109.818 69.2451 109.6 69.2451C97.6365 69.2451 85.6885 69.2451 73.7249 69.2451C73.3831 69.2451 73.0413 69.2451 72.715 69.2607C72.482 69.2764 72.2955 69.3702 72.2644 69.6206C72.2334 69.7927 72.3111 69.9648 72.4664 70.0587C72.7772 70.2621 73.0879 70.403 73.1967 70.8567C73.3831 71.7956 74.0357 72.1398 74.9834 72.1242C76.8479 72.0929 78.7123 72.1085 80.5768 72.1085C80.9963 72.1085 81.4002 72.1085 81.8042 72.3432C84.6475 73.9862 87.2577 75.9265 89.6038 78.2423C91.0643 79.6819 92.2451 81.3405 93.3793 83.0617C95.3991 82.561 97.45 82.5453 99.4232 82.8739ZM91.6081 84.955C91.6081 86.066 91.6081 87.0362 91.6081 88.0219C91.6081 88.9921 91.6081 89.9622 91.6081 90.9011C93.8144 91.1671 100.62 91.0732 101.459 90.7915C101.459 88.8982 101.459 86.9892 101.459 85.0333C98.1958 84.0788 94.9952 84.3135 91.6081 84.955Z" fill="#F7F9FB"/>
<path d="M155.691 72.4893C155.249 72.1289 154.87 71.7896 154.47 71.4716C152.301 69.7755 149.859 69.4787 147.291 70.1783C145.354 70.7084 143.986 72.0441 143.123 73.825C141.944 76.1995 141.775 78.7225 142.533 81.2455C144.133 86.567 150.807 88.4328 154.975 84.7437C155.228 84.5105 155.396 84.1925 155.964 84.0865C156.722 84.8709 157.564 85.7402 158.406 86.5882C158.617 86.8002 158.827 86.9911 158.87 87.2879C155.606 91.7402 146.133 92.4186 141.354 88.0511C136.091 83.2384 135.797 74.3126 140.66 69.1395C145.523 64.0087 154.954 64.3904 158.996 69.2667C158.638 69.9663 157.922 70.3904 157.375 70.9416C156.87 71.4716 156.301 71.9381 155.691 72.4893Z" fill="#F7F9FB"/>
<path d="M167.374 90.3409C165.922 90.3409 164.554 90.3409 163.206 90.3409C162.89 89.0052 162.764 54.8709 163.08 51.6695C164.511 51.6059 165.985 51.5635 167.606 51.7119C167.606 57.5211 167.606 63.2879 167.606 69.0547C168.196 69.0335 168.343 68.673 168.532 68.4186C171.143 65.09 177.395 64.6024 180.7 66.8921C183.1 68.5246 184.195 70.8568 184.3 73.6554C184.405 76.9628 184.342 80.249 184.363 83.5564C184.363 85.7614 184.363 87.9451 184.363 90.2349C182.827 90.5317 181.374 90.4257 179.942 90.3409C179.711 89.7048 179.816 89.1112 179.816 88.5388C179.795 84.5529 179.795 80.5458 179.816 76.56C179.816 75.5635 179.711 74.5882 179.458 73.6342C178.869 71.3444 177.079 69.9027 174.722 69.7755C171.122 69.5635 168.532 71.5776 167.796 75.1607C167.606 76.0723 167.564 76.984 167.564 77.9169C167.585 81.4999 167.585 85.1041 167.564 88.6872C167.564 89.196 167.711 89.726 167.374 90.3409Z" fill="#F7F9FB"/>
<path d="M214.152 79.8885C207.647 79.8885 201.331 79.8885 194.974 79.8885C194.7 81.3514 195.205 82.4751 195.921 83.5351C198.426 87.2242 204.447 88.3691 208.215 84.7648C208.657 84.3408 209.078 83.8744 209.584 83.3443C210.72 84.2136 211.815 85.0404 212.952 85.9097C212.11 87.3514 210.868 88.2631 209.542 89.0687C206.447 90.9556 203.015 91.4009 199.563 90.7648C194.931 89.8956 191.9 86.9698 190.532 82.4327C189.479 78.998 189.563 75.5634 191.163 72.2772C193.416 67.6341 198.237 65.0899 203.521 65.4927C209.499 65.938 212.805 69.9238 213.71 74.673C213.752 74.9062 213.815 75.1182 213.857 75.3514C214.089 76.7931 214.152 78.2136 214.152 79.8885ZM209.099 76.0934C209.205 72.4256 207.478 70.1783 204.152 69.3302C202.573 68.9274 201.079 69.1182 199.584 69.6058C197.352 70.3479 194.721 73.1253 194.91 76.0934C199.605 76.0934 204.279 76.0934 209.099 76.0934Z" fill="#F7F9FB"/>
<path d="M221.436 70.0935C219.583 70.0935 217.983 70.0935 216.341 70.0935C216.131 68.7366 216.278 67.4857 216.215 66.044C217.941 66.044 219.583 66.044 221.415 66.044C221.415 65.2596 221.415 64.6447 221.415 64.0299C221.436 61.8249 221.267 59.62 221.646 57.4575C222.067 55.0193 222.973 52.8567 225.393 51.7967C227.836 50.7154 230.383 50.8214 232.993 51.2454C233.098 52.6871 232.783 53.9168 232.614 55.1465C232.193 55.5281 231.835 55.2101 231.456 55.1253C230.656 54.9769 229.856 54.9981 229.057 55.0829C227.688 55.2313 226.846 55.9946 226.488 57.2878C226.299 58.0087 226.151 58.7719 226.13 59.514C226.088 61.5917 226.109 63.6695 226.109 65.8532C227.878 66.1924 229.646 65.832 231.477 66.0864C231.477 67.3797 231.477 68.6306 231.477 70.0511C229.751 70.0511 228.004 70.0511 226.109 70.0511C226.109 76.8992 226.109 83.5776 226.109 90.3408C224.488 90.4256 223.036 90.5105 221.436 90.2984C221.436 83.5564 221.436 76.9416 221.436 70.0935Z" fill="#F7F9FB"/>
<path d="M236.677 66.0652C238.067 66.0652 239.351 66.0652 240.782 66.0652C241.119 67.104 240.803 68.2065 241.014 69.4786C243.035 66.8072 245.688 65.5139 248.866 65.4503C252.129 65.3867 254.592 66.892 256.298 69.8178C257.161 68.5457 258.066 67.4221 259.329 66.7012C262.129 65.1111 265.055 65.0687 267.981 66.1288C270.234 66.9344 271.602 68.6729 272.381 70.9415C272.971 72.6588 273.055 74.4609 273.139 76.2418C273.16 76.5811 273.139 76.9415 273.139 77.2807C273.139 81.5634 273.139 85.8461 273.139 90.2348C271.645 90.5528 270.171 90.3408 268.781 90.362C268.403 89.8744 268.55 89.3867 268.55 88.9415C268.529 84.998 268.529 81.0758 268.55 77.1323C268.55 75.9026 268.466 74.6941 268.213 73.5069C267.75 71.2807 266.276 69.9874 264.045 69.7542C260.087 69.3514 257.477 71.7047 257.224 75.9874C257.14 77.4927 257.182 78.998 257.182 80.5033C257.182 83.7471 257.182 86.9698 257.182 90.2772C255.666 90.4892 254.256 90.362 252.887 90.362C252.403 90.0228 252.55 89.5775 252.55 89.1959C252.55 85.3797 252.571 81.5634 252.529 77.7259C252.529 76.1146 252.487 74.4821 252.066 72.892C251.624 71.2595 250.593 70.3267 249.035 69.9026C246.466 69.203 244.045 70.1782 242.614 72.4256C241.624 73.9945 241.225 75.6906 241.225 77.5351C241.225 81.1818 241.225 84.8284 241.225 88.4751C241.225 89.0475 241.225 89.6199 241.225 90.256C239.646 90.3832 238.193 90.4256 236.656 90.2348C236.677 82.1782 236.677 74.1641 236.677 66.0652Z" fill="#F7F9FB"/>
<path d="M295.475 75.0546C295.981 72.1076 293.854 68.9698 289.539 69.1394C287.602 69.203 285.813 69.7754 284.255 70.9627C283.855 71.2807 283.413 71.5352 283.118 71.7472C282.171 70.7931 281.286 69.9239 280.36 68.991C282.002 67.3373 284.086 66.468 286.339 65.9168C289.076 65.2383 291.791 65.2383 294.465 66.2348C298.044 67.5493 299.833 69.9875 299.875 73.8249C299.917 77.1747 299.896 80.5458 299.875 83.8956C299.875 86.0157 299.854 88.1571 300.044 90.3408C298.633 90.468 297.391 90.4468 296.044 90.362C295.686 89.302 295.981 88.1995 295.749 87.203C295.223 87.1818 295.117 87.5846 294.907 87.8179C292.991 89.9804 290.591 90.9557 287.728 90.9981C286.044 91.0193 284.444 90.8073 282.865 90.1076C277.876 87.8603 277.708 80.885 281.581 78.0016C283.686 76.4115 286.107 75.8179 288.633 75.4786C290.528 75.2242 292.423 75.3302 294.317 75.309C294.717 75.2666 295.138 75.3938 295.475 75.0546ZM295.496 78.7436C293.307 78.7224 291.202 78.6376 289.097 78.9557C288.002 79.1253 286.97 79.4433 285.96 79.8461C284.381 80.4822 283.434 81.9451 283.518 83.4716C283.602 85.2737 284.528 86.4186 286.36 86.9698C287.539 87.309 288.76 87.2878 289.96 87.1394C292.549 86.8426 294.275 85.3797 295.16 82.9415C295.602 81.6482 295.623 80.2702 295.496 78.7436Z" fill="#F7F9FB"/>
<path d="M319.664 90.2773C316.738 91.1465 313.938 91.3585 311.18 90.0653C309.77 89.408 309.033 88.1995 308.675 86.7154C308.38 85.5282 308.338 84.3197 308.338 83.09C308.338 79.3798 308.338 75.6695 308.338 71.9593C308.338 71.3868 308.338 70.8144 308.338 70.1147C306.57 70.1147 304.928 70.1147 303.18 70.1147C302.991 68.6942 303.012 67.401 303.159 65.9593C304.886 65.9593 306.528 65.9593 308.317 65.9593C308.317 63.6907 308.317 61.5706 308.317 59.302C309.917 59.2172 311.369 59.1748 312.948 59.3232C312.948 61.507 312.948 63.6271 312.948 65.9169C315.18 65.9169 317.285 65.9169 319.474 65.9169C319.474 67.3161 319.474 68.567 319.474 69.9875C317.39 69.9875 315.285 69.9875 313.39 69.9875C312.864 70.4328 312.969 70.7932 312.969 71.1112C312.969 74.5882 312.948 78.0653 312.969 81.5423C312.969 82.5812 313.012 83.62 313.327 84.6377C313.685 85.7402 314.38 86.355 315.538 86.5458C316.885 86.7578 318.169 86.6094 319.496 85.9734C319.832 87.4151 319.58 88.7084 319.664 90.2773Z" fill="#F7F9FB"/>
<path d="M348.231 79.931C341.705 79.931 335.369 79.931 328.885 79.931C329.032 83.09 330.674 85.0617 333.263 86.1642C337.326 87.9239 340.779 86.7791 343.6 83.408C344.863 84.0865 345.874 85.0193 346.926 85.8462C346.884 86.4822 346.4 86.7791 346.063 87.1395C341.895 91.5494 333.6 92.2278 329.074 88.8356C326.569 86.9487 324.948 84.4893 324.337 81.4151C323.264 75.9875 324.443 71.2808 328.969 67.8038C332.821 64.8568 339.032 64.6236 343.116 67.2314C344.863 68.355 346.105 69.9239 346.905 71.8321C348 74.355 348.358 76.9628 348.231 79.931ZM329.032 76.0935C331.706 76.3268 341.937 76.2632 343.242 76.0087C343.389 75.3727 343.221 74.7579 343.095 74.1642C342.526 71.62 340.99 70.0299 338.463 69.3727C336.969 68.9911 335.516 69.0759 334.063 69.4787C331.2 70.2844 329.032 73.1253 329.032 76.0935Z" fill="#F7F9FB"/>
<path d="M107.301 66.8197C106.819 67.0232 106.322 66.8354 105.685 66.9606C105.452 64.7073 104.908 62.6419 103.587 60.8581C102.298 59.1056 100.635 57.8381 98.7397 56.8993C101.521 57.2122 106.835 61.7969 107.301 66.8197Z" fill="#F7F9FB"/>
<path d="M92.3696 72.2025C94.5914 72.2025 96.7355 72.2025 99.0506 72.2025C97.7299 73.3448 96.8754 74.6905 96.2384 76.1926C95.9276 76.9124 95.3061 76.7716 94.7157 76.7872C94.1253 76.8029 93.9078 76.4586 93.7524 75.9735C93.364 74.7217 92.9911 73.47 92.3696 72.2025Z" fill="#F7F9FB"/>
<path d="M91.3285 72.2181C91.4217 72.8127 91.4994 73.3448 91.6082 74.1271C90.7692 73.423 90.1166 72.8753 89.3242 72.2181C90.07 72.2181 90.6449 72.2181 91.3285 72.2181Z" fill="#F7F9FB"/>
<path d="M94.6536 87.3023C94.6847 87.6622 94.2807 88.1316 93.8923 88.1785C93.5349 88.2255 93.0533 87.8343 92.9911 87.4431C92.929 87.0206 93.3796 86.5199 93.7991 86.5043C94.1875 86.5043 94.6381 86.9267 94.6536 87.3023Z" fill="#F7F9FB"/>
</svg>
