<svg width="50" height="49" viewBox="0 0 50 49" fill="none" xmlns="http://www.w3.org/2000/svg">
<path d="M0.0212402 24.4655C0.0212402 11.3576 11.0799 0.731506 24.7215 0.731506V0.731506C38.3631 0.731506 49.4218 11.3576 49.4218 24.4655V24.4655C49.4218 37.5734 38.3631 48.1995 24.7215 48.1995V48.1995C11.0799 48.1995 0.0212402 37.5734 0.0212402 24.4655V24.4655Z" fill="#951212"/>
<path d="M32.955 25.4544V19.2722C32.955 19.1149 32.8899 18.9639 32.7741 18.8527L29.5337 15.739C29.4179 15.6278 29.2608 15.5652 29.0971 15.5652H17.1056C16.7646 15.5652 16.4881 15.8309 16.4881 16.1586V34.7502C16.4881 35.078 16.7646 35.3436 17.1056 35.3436H23.6923" stroke="white" stroke-width="1.4" stroke-linecap="round" stroke-linejoin="round"/>
<path d="M20.6049 23.4766H28.8383M20.6049 19.5209H24.7216M20.6049 27.4323H23.6924" stroke="white" stroke-width="1.4" stroke-linecap="round" stroke-linejoin="round"/>
<path d="M29.1527 30.511L30.0884 28.6047C30.2085 28.36 30.5555 28.36 30.6756 28.6047L31.6112 30.511L33.7037 30.8186C33.9722 30.8581 34.0791 31.1899 33.8848 31.3803L32.371 32.8631L32.7282 34.9579C32.7741 35.2269 32.4934 35.4321 32.2531 35.305L30.382 34.3154L28.5108 35.305C28.2706 35.4321 27.9899 35.2269 28.0358 34.9579L28.393 32.8631L26.8792 31.3803C26.6849 31.1899 26.7918 30.8581 27.0603 30.8186L29.1527 30.511Z" stroke="white" stroke-width="1.4" stroke-linecap="round" stroke-linejoin="round"/>
<path d="M28.8383 15.5652V18.9276C28.8383 19.2553 29.1147 19.5209 29.4558 19.5209H32.955" stroke="white" stroke-width="1.4" stroke-linecap="round" stroke-linejoin="round"/>
</svg>
