<svg width="132" height="20" viewBox="0 0 132 20" fill="none" xmlns="http://www.w3.org/2000/svg">
<path fill-rule="evenodd" clip-rule="evenodd" d="M70.8984 4.35664C69.3397 4.60938 69.3451 5.01828 70.9106 5.26994L96.3163 9.35411H26L25.4572 9.36C23.5048 9.40276 22 9.67296 22 9.99991C22 10.3566 23.7908 10.6457 26 10.6457H96.308L70.9103 14.7298L70.5221 14.8021C69.357 15.0545 69.4815 15.4133 70.8986 15.6431C72.4575 15.8958 74.9901 15.8966 76.5554 15.645L108.728 10.4721C109.476 10.3593 109.956 10.2006 109.996 10.0238C110.037 9.85006 109.645 9.67418 108.821 9.54177L76.5552 4.35467L76.1057 4.2923C74.5373 4.10526 72.3154 4.12687 70.8984 4.35664Z" fill="white"/>
</svg>
