<svg width="67" height="20" viewBox="0 0 67 20" fill="none" xmlns="http://www.w3.org/2000/svg">
<path fill-rule="evenodd" clip-rule="evenodd" d="M35.9864 4.35664C35.1952 4.60938 35.198 5.01828 35.9926 5.26994L48.8879 9.35411H13.197L12.9215 9.36C11.9305 9.40276 11.1667 9.67296 11.1667 9.99991C11.1667 10.3566 12.0757 10.6457 13.197 10.6457H48.8837L35.9924 14.7298L35.7954 14.8021C35.204 15.0545 35.2672 15.4133 35.9865 15.6431C36.7777 15.8958 38.0632 15.8966 38.8577 15.645L55.1876 10.4721C55.5684 10.3591 55.8123 10.1999 55.8316 10.0227C55.8512 9.84929 55.6523 9.67389 55.2352 9.54177L38.8576 4.35467L38.6295 4.2923C37.8334 4.10526 36.7056 4.12687 35.9864 4.35664Z" fill="white"/>
</svg>
