<svg width="32" height="31" viewBox="0 0 32 31" fill="none" xmlns="http://www.w3.org/2000/svg">
<path fill-rule="evenodd" clip-rule="evenodd" d="M15.987 2.90424C13.8968 2.90424 12.1599 2.97583 10.7509 3.25291C9.32418 3.53346 8.14835 4.04068 7.26496 4.97057C6.39198 5.88951 5.90625 7.11523 5.62785 8.63503C5.34994 10.1521 5.26269 12.0568 5.26269 14.4169C5.26269 15.3276 5.26109 16.1827 5.25958 16.9848L5.25958 16.985C5.25244 20.7787 5.24753 23.3868 5.42555 25.0878C5.53176 26.1027 5.71491 26.9641 6.11762 27.5829C6.33419 27.9156 6.62181 28.1913 6.99528 28.3749C7.36206 28.5552 7.74932 28.6161 8.11999 28.6161C8.96684 28.6161 9.78798 28.1684 10.4508 27.7259C11.0978 27.2939 11.7789 26.7346 12.423 26.2057L12.4231 26.2057L12.5755 26.0806C13.2868 25.4972 13.9549 24.9586 14.5818 24.5631C15.2321 24.1529 15.6892 23.9955 15.987 23.9955C16.2848 23.9955 16.742 24.1529 17.3923 24.5631C18.0192 24.9586 18.6873 25.4972 19.3985 26.0806L19.551 26.2057C20.1951 26.7346 20.8762 27.2939 21.5233 27.7259C22.1861 28.1684 23.0072 28.6161 23.8541 28.6161C24.2247 28.6161 24.612 28.5552 24.9788 28.3749C25.3522 28.1913 25.6399 27.9156 25.8564 27.5829C26.2591 26.9641 26.4423 26.1027 26.5485 25.0878C26.7265 23.3868 26.7216 20.7787 26.7145 16.9851V16.985C26.713 16.1829 26.7114 15.3277 26.7114 14.4169C26.7114 12.0568 26.6241 10.1521 26.3462 8.63503C26.0678 7.11523 25.5821 5.88951 24.7091 4.97057C23.8257 4.04068 22.6499 3.53346 21.2232 3.25291C19.8142 2.97583 18.0773 2.90424 15.987 2.90424ZM7.22064 14.4169C7.22064 12.0754 7.30945 10.3079 7.55615 8.96117C7.80235 7.6172 8.18979 6.78763 8.71103 6.23895C9.22186 5.70123 9.96131 5.32852 11.1434 5.09606C12.3433 4.86011 13.9088 4.78559 15.987 4.78559C18.0652 4.78559 19.6308 4.86011 20.8306 5.09606C22.0127 5.32852 22.7522 5.70123 23.263 6.23895C23.7843 6.78763 24.1717 7.6172 24.4179 8.96117C24.6646 10.3079 24.7534 12.0754 24.7534 14.4169C24.7534 15.3499 24.7549 16.2189 24.7564 17.0281V17.0282C24.7631 20.8232 24.7675 23.3031 24.6004 24.8996C24.4974 25.8834 24.3412 26.3628 24.1964 26.5853C24.1392 26.6731 24.1011 26.6931 24.087 26.7C24.0663 26.7102 24.0042 26.7347 23.8541 26.7347C23.6599 26.7347 23.2753 26.6047 22.6405 26.1809C22.0777 25.8052 21.4689 25.3055 20.8005 24.757L20.6697 24.6496C19.9725 24.0778 19.2132 23.4613 18.4668 22.9904C17.7438 22.5343 16.8816 22.1141 15.987 22.1141C15.0925 22.1141 14.2302 22.5343 13.5072 22.9904C12.7608 23.4613 12.0015 24.0778 11.3044 24.6496L11.1735 24.757L11.1735 24.757C10.5051 25.3055 9.89633 25.8052 9.33357 26.1809C8.69875 26.6047 8.31412 26.7347 8.11999 26.7347C7.96985 26.7347 7.9078 26.7102 7.88704 26.7C7.87297 26.6931 7.83482 26.6731 7.77764 26.5853C7.63286 26.3628 7.47663 25.8834 7.37367 24.8996C7.2066 23.3031 7.21098 20.8231 7.21768 17.0281V17.0281C7.21911 16.2189 7.22064 15.3499 7.22064 14.4169ZM11.5128 11.3298C10.9721 11.3298 10.5338 11.751 10.5338 12.2705C10.5338 12.79 10.9721 13.2112 11.5128 13.2112H20.4606C21.0013 13.2112 21.4396 12.79 21.4396 12.2705C21.4396 11.751 21.0013 11.3298 20.4606 11.3298H11.5128Z" fill="#951212"/>
</svg>
