<svg width="17" height="17" viewBox="0 0 17 17" fill="none" xmlns="http://www.w3.org/2000/svg">
<g clip-path="url(#clip0_16_2597)">
<path d="M5.66667 4.08548C5.63902 4.05806 5.63902 4.05806 5.61138 4.03064C5.47317 3.89354 5.41789 3.8387 5.41789 3.72902C5.41789 3.59193 5.47317 3.56451 5.61138 3.42741C5.66667 3.37257 5.74959 3.29031 5.80488 3.23548C5.88781 3.1258 5.8878 2.9887 5.77724 2.90644C5.66667 2.82419 5.52846 2.82419 5.44553 2.93386C5.39024 2.9887 5.33496 3.04354 5.27968 3.09838C5.11382 3.2629 4.94797 3.42741 4.94797 3.75644C4.94797 4.08548 5.11382 4.24999 5.27968 4.41451C5.30732 4.44193 5.30732 4.44193 5.33496 4.46935C5.50081 4.60644 5.61138 4.71612 5.61138 4.9629C5.61138 5.23709 5.47317 5.4016 5.30732 5.56612C5.27968 5.59354 5.27967 5.59354 5.25203 5.62096C5.16911 5.73064 5.16911 5.86773 5.27968 5.94999C5.33496 5.97741 5.39024 6.00483 5.44553 6.00483C5.50081 6.00483 5.58374 5.97741 5.63902 5.92257C5.66667 5.89515 5.66667 5.89515 5.69431 5.86773C5.88781 5.6758 6.13659 5.4016 6.13659 4.93548C6.10894 4.46935 5.86016 4.24999 5.66667 4.08548Z" fill="#A9A9A9" stroke="#A9A9A9" stroke-width="0.2"/>
<path d="M9.03901 3.01612C9.01137 2.98871 9.01137 2.98871 8.98373 2.96129C8.84552 2.82419 8.79023 2.76935 8.79023 2.65967C8.79023 2.52258 8.84552 2.49516 8.98373 2.35806C9.03901 2.30322 9.12194 2.22096 9.17722 2.16612C9.26015 2.05645 9.26015 1.91935 9.14958 1.83709C9.03901 1.75483 8.9008 1.75483 8.81787 1.86451C8.76259 1.91935 8.7073 1.97419 8.65202 2.02903C8.48617 2.19354 8.32031 2.35806 8.32031 2.68709C8.32031 3.01612 8.48617 3.18064 8.65202 3.34516C8.67966 3.37258 8.67966 3.37258 8.7073 3.4C8.87316 3.53709 8.98373 3.64677 8.98373 3.89354C8.98373 4.16774 8.84552 4.33225 8.67966 4.49677C8.65202 4.52419 8.65202 4.52419 8.62438 4.55161C8.54145 4.66129 8.54145 4.79838 8.65202 4.88064C8.7073 4.90806 8.76259 4.93548 8.81787 4.93548C8.87316 4.93548 8.95608 4.90806 9.01137 4.85322C9.03901 4.8258 9.03901 4.8258 9.06665 4.79838C9.26015 4.60645 9.50893 4.33225 9.50893 3.86612C9.48129 3.4 9.23251 3.18064 9.03901 3.01612Z" fill="#A9A9A9" stroke="#A9A9A9" stroke-width="0.2"/>
<path d="M12.439 4.08548C12.4114 4.05806 12.4114 4.05806 12.3838 4.03064C12.2455 3.89354 12.1903 3.8387 12.1903 3.72902C12.1903 3.59193 12.2455 3.56451 12.3838 3.42741C12.439 3.37257 12.522 3.29031 12.5772 3.23548C12.6602 3.1258 12.6602 2.9887 12.5496 2.90644C12.439 2.82419 12.3008 2.82419 12.2179 2.93386C12.1626 2.9887 12.1073 3.04354 12.052 3.09838C11.8862 3.2629 11.7203 3.42741 11.7203 3.75644C11.7203 4.08548 11.8862 4.24999 12.052 4.41451C12.0797 4.44193 12.0797 4.44193 12.1073 4.46935C12.2732 4.60644 12.3838 4.71612 12.3838 4.9629C12.3838 5.23709 12.2455 5.4016 12.0797 5.56612C12.052 5.59354 12.052 5.59354 12.0244 5.62096C11.9415 5.73064 11.9415 5.86773 12.052 5.94999C12.1073 5.97741 12.1626 6.00483 12.2179 6.00483C12.2732 6.00483 12.3561 5.97741 12.4114 5.92257C12.439 5.89515 12.439 5.89515 12.4667 5.86773C12.6602 5.6758 12.909 5.4016 12.909 4.93548C12.8537 4.46935 12.6049 4.24999 12.439 4.08548Z" fill="#A9A9A9" stroke="#A9A9A9" stroke-width="0.2"/>
<path d="M16.8065 14.0661H0.995118C0.856907 14.0661 0.746338 14.1758 0.746338 14.3129V14.8887C0.746338 15.5194 1.27154 16.0403 1.90731 16.0403H15.8943C16.5301 16.0403 17.0553 15.5194 17.0553 14.8887V14.3129C17.0553 14.1758 16.9447 14.0661 16.8065 14.0661ZM16.5577 14.8887C16.5577 15.2726 16.2537 15.5742 15.8667 15.5742H1.90731C1.52032 15.5742 1.21626 15.2726 1.21626 14.8887V14.5597H16.5577V14.8887Z" fill="#A9A9A9" stroke="#A9A9A9" stroke-width="0.2"/>
<path d="M13.2959 8.91129C12.3285 7.97903 11.0846 7.40322 9.78537 7.21129L10.2553 6.74516C10.3935 6.60806 10.4488 6.38871 10.3659 6.19677C10.2829 6.00483 10.1171 5.89516 9.89594 5.89516H7.90569C7.7122 5.89516 7.5187 6.00483 7.43577 6.19677C7.35285 6.38871 7.40813 6.58064 7.54634 6.74516L8.01626 7.21129C6.68943 7.40322 5.47317 7.97903 4.47805 8.91129C3.28943 10.0355 2.59838 11.571 2.54309 13.1887C2.54309 13.3258 2.65366 13.4355 2.76423 13.4355C2.90244 13.4355 3.01301 13.3258 3.01301 13.2161C3.06829 11.7081 3.70407 10.3097 4.80976 9.26774C5.83252 8.28064 7.15935 7.73225 8.54147 7.65C8.56911 7.65 8.59675 7.65 8.62439 7.65C8.65203 7.65 8.67968 7.65 8.70732 7.65C8.73496 7.65 8.73496 7.65 8.7626 7.65C8.79025 7.65 8.84553 7.65 8.87317 7.65C8.90081 7.65 8.9561 7.65 8.98374 7.65C9.01138 7.65 9.01138 7.65 9.03903 7.65C9.06667 7.65 9.09431 7.65 9.12195 7.65C9.14959 7.65 9.17724 7.65 9.20488 7.65C10.6146 7.73225 11.9138 8.28064 12.9366 9.26774C14.0423 10.3097 14.6781 11.7081 14.7333 13.2161C14.7333 13.3532 14.8439 13.4629 14.9821 13.4355C15.1203 13.4355 15.2309 13.3258 15.2033 13.1887C15.1756 11.5435 14.4846 10.0355 13.2959 8.91129ZM9.14959 7.15645H9.12195C9.09431 7.15645 9.06667 7.15645 9.03903 7.15645C8.98374 7.15645 8.9561 7.15645 8.90081 7.15645C8.84553 7.15645 8.81789 7.15645 8.7626 7.15645C8.73496 7.15645 8.70732 7.15645 8.67968 7.15645H8.65203L7.90569 6.41612H9.89594L9.14959 7.15645Z" fill="#A9A9A9" stroke="#A9A9A9" stroke-width="0.2"/>
</g>
<defs>
<clipPath id="clip0_16_2597">
<rect width="17" height="17" fill="white"/>
</clipPath>
</defs>
</svg>
