<svg width="32" height="31" viewBox="0 0 32 31" fill="none" xmlns="http://www.w3.org/2000/svg">
<path fill-rule="evenodd" clip-rule="evenodd" d="M15.7916 2.21948C13.7606 2.21948 12.0729 2.29188 10.7039 2.57206C9.31761 2.85576 8.17512 3.36866 7.31677 4.30898C6.46853 5.23821 5.99658 6.47768 5.72607 8.01451C5.45603 9.54859 5.37127 11.4747 5.37127 13.8611C5.37127 14.7821 5.3697 15.6469 5.36824 16.458V16.4581C5.3613 20.2943 5.35654 22.9316 5.5295 24.6517C5.6327 25.6779 5.81066 26.5491 6.20195 27.1747C6.41238 27.5112 6.69185 27.79 7.05473 27.9756C7.41112 28.1579 7.78739 28.2195 8.14756 28.2195C8.97039 28.2195 9.76826 27.7668 10.4123 27.3194C11.041 26.8825 11.7028 26.317 12.3286 25.7821L12.3286 25.7821L12.4768 25.6556C13.1679 25.0657 13.817 24.521 14.4261 24.1211C15.058 23.7063 15.5022 23.5471 15.7916 23.5471C16.0809 23.5471 16.5251 23.7063 17.157 24.1211C17.7661 24.521 18.4152 25.0657 19.1063 25.6556L19.2545 25.7821C19.8803 26.3169 20.5421 26.8825 21.1708 27.3194C21.8149 27.7668 22.6127 28.2195 23.4356 28.2195C23.7957 28.2195 24.172 28.1579 24.5284 27.9756C24.8913 27.79 25.1707 27.5112 25.3812 27.1747C25.7725 26.5491 25.9504 25.6779 26.0536 24.6517C26.2266 22.9316 26.2218 20.2943 26.2149 16.4581C26.2134 15.6469 26.2118 14.7822 26.2118 13.8611C26.2118 11.4747 26.1271 9.54859 25.857 8.01451C25.5865 6.47768 25.1146 5.23821 24.2663 4.30898C23.408 3.36866 22.2655 2.85576 20.8793 2.57206C19.5102 2.29188 17.8226 2.21948 15.7916 2.21948ZM7.2737 13.8611C7.2737 11.4934 7.36 9.70609 7.5997 8.34431C7.83892 6.98527 8.21538 6.1464 8.72184 5.59157C9.21818 5.04783 9.93667 4.67094 11.0853 4.43587C12.2511 4.19728 13.7723 4.12192 15.7916 4.12192C17.8108 4.12192 19.332 4.19728 20.4978 4.43587C21.6464 4.67094 22.3649 5.04783 22.8613 5.59157C23.3677 6.1464 23.7442 6.98527 23.9834 8.34431C24.2231 9.70609 24.3094 11.4934 24.3094 13.8611C24.3094 14.8046 24.3109 15.6834 24.3123 16.5017C24.3188 20.3392 24.3231 22.847 24.1607 24.4613C24.0607 25.4562 23.9089 25.941 23.7682 26.1659C23.7126 26.2548 23.6756 26.275 23.6619 26.2819C23.6417 26.2923 23.5814 26.317 23.4356 26.317C23.2469 26.317 22.8732 26.1856 22.2564 25.757C21.7096 25.3771 21.118 24.8718 20.4686 24.3171L20.3415 24.2086C19.6641 23.6304 18.9263 23.0069 18.2011 22.5308C17.4985 22.0695 16.6608 21.6446 15.7916 21.6446C14.9223 21.6446 14.0846 22.0695 13.3821 22.5308C12.6568 23.0069 11.919 23.6304 11.2417 24.2086L11.1145 24.3171L11.1145 24.3172C10.4651 24.8719 9.87354 25.3771 9.32673 25.757C8.70991 26.1856 8.33618 26.317 8.14756 26.317C8.00168 26.317 7.94138 26.2923 7.92121 26.2819C7.90754 26.275 7.87047 26.2548 7.81492 26.1659C7.67424 25.941 7.52244 25.4562 7.4224 24.4613C7.26006 22.847 7.26432 20.3392 7.27083 16.5017V16.5017L7.27083 16.5014C7.27221 15.6832 7.2737 14.8045 7.2737 13.8611ZM11.4441 10.7395C10.9188 10.7395 10.4929 11.1654 10.4929 11.6907C10.4929 12.2161 10.9188 12.6419 11.4441 12.6419H20.1383C20.6636 12.6419 21.0895 12.2161 21.0895 11.6907C21.0895 11.1654 20.6636 10.7395 20.1383 10.7395H11.4441Z" fill="#951212"/>
</svg>
