<svg width="32" height="31" viewBox="0 0 32 31" fill="none" xmlns="http://www.w3.org/2000/svg">
<path fill-rule="evenodd" clip-rule="evenodd" d="M15.7915 2.21948C13.7605 2.21948 12.0729 2.29188 10.7038 2.57206C9.31755 2.85576 8.17505 3.36866 7.3167 4.30898C6.46847 5.23821 5.99652 6.47768 5.726 8.01451C5.45597 9.54859 5.3712 11.4747 5.3712 13.8611C5.3712 14.7821 5.36964 15.6469 5.36818 16.458V16.4581C5.36124 20.2943 5.35648 22.9316 5.52944 24.6517C5.63264 25.6779 5.8106 26.5491 6.20189 27.1747C6.41232 27.5112 6.69179 27.79 7.05467 27.9756C7.41106 28.1579 7.78733 28.2195 8.1475 28.2195C8.97033 28.2195 9.76819 27.7668 10.4122 27.3194C11.0409 26.8825 11.7027 26.317 12.3285 25.7821L12.3286 25.7821L12.4767 25.6556C13.1678 25.0657 13.8169 24.521 14.4261 24.1211C15.058 23.7063 15.5021 23.5471 15.7915 23.5471C16.0809 23.5471 16.525 23.7063 17.1569 24.1211C17.7661 24.521 18.4152 25.0657 19.1063 25.6556L19.2544 25.7821C19.8803 26.3169 20.5421 26.8825 21.1708 27.3194C21.8148 27.7668 22.6127 28.2195 23.4355 28.2195C23.7957 28.2195 24.1719 28.1579 24.5283 27.9756C24.8912 27.79 25.1707 27.5112 25.3811 27.1747C25.7724 26.5491 25.9504 25.6779 26.0536 24.6517C26.2265 22.9316 26.2218 20.2943 26.2148 16.4581C26.2134 15.6469 26.2118 14.7822 26.2118 13.8611C26.2118 11.4747 26.127 9.54859 25.857 8.01451C25.5865 6.47768 25.1145 5.23821 24.2663 4.30898C23.4079 3.36866 22.2654 2.85576 20.8792 2.57206C19.5101 2.29188 17.8225 2.21948 15.7915 2.21948ZM7.27364 13.8611C7.27364 11.4934 7.35994 9.70609 7.59964 8.34431C7.83886 6.98527 8.21531 6.1464 8.72178 5.59157C9.21812 5.04783 9.93661 4.67094 11.0852 4.43587C12.2511 4.19728 13.7722 4.12192 15.7915 4.12192C17.8108 4.12192 19.3319 4.19728 20.4978 4.43587C21.6464 4.67094 22.3649 5.04783 22.8612 5.59157C23.3677 6.1464 23.7441 6.98527 23.9834 8.34431C24.2231 9.70609 24.3093 11.4934 24.3093 13.8611C24.3093 14.8046 24.3108 15.6834 24.3122 16.5017C24.3187 20.3392 24.323 22.847 24.1607 24.4613C24.0606 25.4562 23.9088 25.941 23.7681 26.1659C23.7126 26.2548 23.6755 26.275 23.6618 26.2819C23.6417 26.2923 23.5814 26.317 23.4355 26.317C23.2469 26.317 22.8731 26.1856 22.2563 25.757C21.7095 25.3771 21.118 24.8718 20.4685 24.3171L20.3414 24.2086C19.664 23.6304 18.9263 23.0069 18.201 22.5308C17.4985 22.0695 16.6607 21.6446 15.7915 21.6446C14.9223 21.6446 14.0845 22.0695 13.382 22.5308C12.6567 23.0069 11.919 23.6304 11.2416 24.2086L11.1145 24.3171L11.1144 24.3172C10.465 24.8719 9.87348 25.3771 9.32667 25.757C8.70985 26.1856 8.33612 26.317 8.1475 26.317C8.00162 26.317 7.94132 26.2923 7.92115 26.2819C7.90748 26.275 7.87041 26.2548 7.81485 26.1659C7.67418 25.941 7.52238 25.4562 7.42233 24.4613C7.26 22.847 7.26425 20.3392 7.27076 16.5017V16.5017L7.27077 16.5014C7.27215 15.6832 7.27364 14.8045 7.27364 13.8611ZM11.4441 10.7395C10.9187 10.7395 10.4929 11.1654 10.4929 11.6907C10.4929 12.2161 10.9187 12.6419 11.4441 12.6419H20.1382C20.6636 12.6419 21.0894 12.2161 21.0894 11.6907C21.0894 11.1654 20.6636 10.7395 20.1382 10.7395H11.4441Z" fill="#7E7E7E"/>
</svg>
