<svg width="31" height="31" viewBox="0 0 31 31" fill="none" xmlns="http://www.w3.org/2000/svg">
<path fill-rule="evenodd" clip-rule="evenodd" d="M15.5356 2.21948C13.5773 2.21948 11.9501 2.29188 10.63 2.57206C9.29342 2.85576 8.19183 3.36866 7.36422 4.30898C6.54636 5.23821 6.0913 6.47768 5.83047 8.01451C5.57011 9.54859 5.48838 11.4747 5.48838 13.8611C5.48838 14.7821 5.48687 15.6469 5.48546 16.458L5.48546 16.4581C5.47877 20.2943 5.47418 22.9316 5.64095 24.6517C5.74045 25.6779 5.91204 26.5491 6.28932 27.1747C6.49222 27.5112 6.76168 27.79 7.11156 27.9756C7.45519 28.1579 7.81799 28.2195 8.16526 28.2195C8.95864 28.2195 9.72793 27.7668 10.3489 27.3194C10.9551 26.8825 11.5932 26.317 12.1966 25.7821L12.1966 25.7821L12.3395 25.6556C13.0058 25.0657 13.6317 24.521 14.219 24.1211C14.8283 23.7063 15.2566 23.5471 15.5356 23.5471C15.8146 23.5471 16.2428 23.7063 16.8521 24.1211C17.4394 24.521 18.0653 25.0657 18.7317 25.6556L18.8745 25.7821C19.4779 26.3169 20.116 26.8825 20.7222 27.3194C21.3432 27.7668 22.1125 28.2195 22.9059 28.2195C23.2531 28.2195 23.6159 28.1579 23.9596 27.9756C24.3095 27.79 24.5789 27.5112 24.7818 27.1747C25.1591 26.5491 25.3307 25.6779 25.4302 24.6517C25.597 22.9316 25.5924 20.2943 25.5857 16.4581V16.4581V16.458C25.5843 15.6469 25.5828 14.7821 25.5828 13.8611C25.5828 11.4747 25.501 9.54859 25.2407 8.01451C24.9798 6.47768 24.5248 5.23821 23.7069 4.30898C22.8793 3.36866 21.7777 2.85576 20.4411 2.57206C19.1211 2.29188 17.4938 2.21948 15.5356 2.21948ZM7.3227 13.8611C7.3227 11.4934 7.4059 9.70609 7.63702 8.34431C7.86768 6.98527 8.23065 6.1464 8.71898 5.59157C9.19755 5.04783 9.89031 4.67094 10.9978 4.43587C12.1219 4.19728 13.5886 4.12192 15.5356 4.12192C17.4826 4.12192 18.9492 4.19728 20.0733 4.43587C21.1808 4.67094 21.8736 5.04783 22.3521 5.59157C22.8405 6.1464 23.2035 6.98527 23.4341 8.34431C23.6652 9.70609 23.7484 11.4934 23.7484 13.8611C23.7484 14.8046 23.7499 15.6834 23.7512 16.5017C23.7575 20.3392 23.7616 22.847 23.6051 24.4613C23.5086 25.4562 23.3622 25.941 23.2266 26.1659C23.173 26.2548 23.1373 26.275 23.1241 26.2819C23.1047 26.2923 23.0465 26.317 22.9059 26.317C22.724 26.317 22.3636 26.1856 21.7689 25.757C21.2417 25.3771 20.6713 24.8718 20.0451 24.3171L19.9225 24.2086C19.2694 23.6304 18.5581 23.0069 17.8588 22.5308C17.1814 22.0695 16.3737 21.6446 15.5356 21.6446C14.6975 21.6446 13.8897 22.0695 13.2123 22.5308C12.5131 23.0069 11.8017 23.6304 11.1486 24.2086L11.026 24.3171L11.026 24.3172C10.3998 24.8719 9.82944 25.3771 9.30221 25.757C8.70748 26.1856 8.34714 26.317 8.16526 26.317C8.0246 26.317 7.96647 26.2923 7.94702 26.2819C7.93384 26.275 7.89809 26.2548 7.84453 26.1659C7.70889 25.941 7.56253 25.4562 7.46606 24.4613C7.30954 22.847 7.31365 20.3392 7.31992 16.5017V16.5016C7.32126 15.6833 7.3227 14.8046 7.3227 13.8611ZM11.3438 10.7395C10.8373 10.7395 10.4267 11.1654 10.4267 11.6907C10.4267 12.2161 10.8373 12.6419 11.3438 12.6419H19.7267C20.2332 12.6419 20.6438 12.2161 20.6438 11.6907C20.6438 11.1654 20.2332 10.7395 19.7267 10.7395H11.3438Z" fill="#951212"/>
</svg>
