<svg width="20" height="20" viewBox="0 0 20 20" fill="none" xmlns="http://www.w3.org/2000/svg">
<path fill-rule="evenodd" clip-rule="evenodd" d="M9.9752 2.08334C4.6527 2.08334 3.75354 2.86001 3.75354 9.10751C3.75354 16.1017 3.6227 17.9167 4.9527 17.9167C6.28187 17.9167 8.4527 14.8467 9.9752 14.8467C11.4977 14.8467 13.6685 17.9167 14.9977 17.9167C16.3277 17.9167 16.1969 16.1017 16.1969 9.10751C16.1969 2.86001 15.2977 2.08334 9.9752 2.08334Z" fill="#121212"/>
<path fill-rule="evenodd" clip-rule="evenodd" d="M9.9752 1.45834C8.64073 1.45834 7.53186 1.50591 6.63233 1.69001C5.72149 1.87641 4.97081 2.21341 4.40683 2.83125C3.8495 3.4418 3.5394 4.2562 3.36166 5.26597C3.18423 6.27394 3.12854 7.53948 3.12854 9.10751C3.12854 9.71266 3.12751 10.2808 3.12655 10.8138L3.12655 10.8138C3.12199 13.3344 3.11886 15.0673 3.2325 16.1974C3.30031 16.8718 3.41724 17.4441 3.67434 17.8552C3.8126 18.0763 3.99623 18.2595 4.23466 18.3814C4.46882 18.5012 4.71605 18.5417 4.9527 18.5417C5.49335 18.5417 6.01758 18.2443 6.44074 17.9503C6.85383 17.6632 7.28866 17.2916 7.69988 16.9402L7.69989 16.9402L7.79722 16.857C8.25131 16.4694 8.67781 16.1116 9.07806 15.8488C9.49323 15.5763 9.78507 15.4717 9.9752 15.4717C10.1653 15.4717 10.4572 15.5763 10.8723 15.8488C11.2726 16.1116 11.6991 16.4694 12.1532 16.857L12.2505 16.9402C12.6617 17.2916 13.0966 17.6632 13.5097 17.9503C13.9328 18.2443 14.4571 18.5417 14.9977 18.5417C15.2344 18.5417 15.4816 18.5012 15.7157 18.3814C15.9542 18.2595 16.1378 18.0763 16.2761 17.8552C16.5332 17.4441 16.6501 16.8718 16.7179 16.1974C16.8315 15.0673 16.8284 13.3344 16.8239 10.8138C16.8229 10.2809 16.8219 9.71267 16.8219 9.10751C16.8219 7.53948 16.7662 6.27394 16.5887 5.26597C16.411 4.2562 16.1009 3.4418 15.5436 2.83125C14.9796 2.21341 14.2289 1.87641 13.3181 1.69001C12.4185 1.50591 11.3097 1.45834 9.9752 1.45834ZM4.37854 9.10751C4.37854 7.55179 4.43523 6.37743 4.59273 5.48267C4.74991 4.58971 4.99726 4.03853 5.33003 3.67398C5.65616 3.31671 6.12824 3.06908 6.88295 2.91462C7.64896 2.75786 8.64843 2.70834 9.9752 2.70834C11.302 2.70834 12.3014 2.75786 13.0675 2.91462C13.8222 3.06908 14.2942 3.31671 14.6204 3.67398C14.9531 4.03853 15.2005 4.58971 15.3577 5.48267C15.5152 6.37743 15.5719 7.55179 15.5719 9.10751C15.5719 9.72741 15.5728 10.3048 15.5738 10.8425V10.8425C15.578 13.3639 15.5808 15.0117 15.4742 16.0724C15.4084 16.7261 15.3087 17.0446 15.2163 17.1924C15.1798 17.2508 15.1554 17.264 15.1464 17.2686C15.1332 17.2754 15.0936 17.2917 14.9977 17.2917C14.8738 17.2917 14.6282 17.2053 14.2229 16.9237C13.8636 16.6741 13.475 16.3421 13.0483 15.9776L12.9647 15.9063C12.5196 15.5264 12.0349 15.1168 11.5584 14.8039C11.0968 14.5008 10.5463 14.2217 9.9752 14.2217C9.40408 14.2217 8.85363 14.5008 8.39203 14.8039C7.91551 15.1168 7.43076 15.5264 6.98569 15.9063L6.90215 15.9776L6.90213 15.9777C6.47542 16.3421 6.08676 16.6741 5.72748 16.9237C5.3222 17.2053 5.07664 17.2917 4.9527 17.2917C4.85685 17.2917 4.81723 17.2754 4.80398 17.2686C4.795 17.264 4.77064 17.2508 4.73414 17.1924C4.64171 17.0446 4.54197 16.7261 4.47623 16.0724C4.36957 15.0117 4.37237 13.3639 4.37664 10.8425C4.37756 10.3048 4.37854 9.72741 4.37854 9.10751ZM7.11873 7.05642C6.77355 7.05642 6.49373 7.33625 6.49373 7.68142C6.49373 8.0266 6.77355 8.30642 7.11873 8.30642H12.8312C13.1764 8.30642 13.4562 8.0266 13.4562 7.68142C13.4562 7.33625 13.1764 7.05642 12.8312 7.05642H7.11873Z" fill="white"/>
</svg>
