<svg width="28" height="28" viewBox="0 0 28 28" fill="none" xmlns="http://www.w3.org/2000/svg">
<path d="M0 14C0 10.2774 0 8.41616 0.489435 6.90983C1.47861 3.86545 3.86545 1.47861 6.90983 0.489435C8.41616 0 10.2774 0 14 0C17.7226 0 19.5838 0 21.0902 0.489435C24.1346 1.47861 26.5214 3.86545 27.5106 6.90983C28 8.41616 28 10.2774 28 14C28 17.7226 28 19.5838 27.5106 21.0902C26.5214 24.1346 24.1346 26.5214 21.0902 27.5106C19.5838 28 17.7226 28 14 28C10.2774 28 8.41616 28 6.90983 27.5106C3.86545 26.5214 1.47861 24.1346 0.489435 21.0902C0 19.5838 0 17.7226 0 14Z" fill="#FFE1B3"/>
<path d="M16.5333 7.47329C16.26 7.19995 15.7866 7.38662 15.7866 7.76662V10.0933C15.7866 11.0666 16.6133 11.8733 17.62 11.8733C18.2533 11.88 19.1333 11.88 19.8866 11.88C20.2666 11.88 20.4666 11.4333 20.2 11.1666C19.24 10.2 17.52 8.45995 16.5333 7.47329Z" fill="#FF9C00"/>
<path d="M19.6667 12.7934H17.7401C16.1601 12.7934 14.8734 11.5067 14.8734 9.92671V8.00004C14.8734 7.63337 14.5734 7.33337 14.2067 7.33337H11.3801C9.32675 7.33337 7.66675 8.66671 7.66675 11.0467V16.9534C7.66675 19.3334 9.32675 20.6667 11.3801 20.6667H16.6201C18.6734 20.6667 20.3334 19.3334 20.3334 16.9534V13.46C20.3334 13.0934 20.0334 12.7934 19.6667 12.7934ZM13.6667 17.8334H11.0001C10.7267 17.8334 10.5001 17.6067 10.5001 17.3334C10.5001 17.06 10.7267 16.8334 11.0001 16.8334H13.6667C13.9401 16.8334 14.1667 17.06 14.1667 17.3334C14.1667 17.6067 13.9401 17.8334 13.6667 17.8334ZM15.0001 15.1667H11.0001C10.7267 15.1667 10.5001 14.94 10.5001 14.6667C10.5001 14.3934 10.7267 14.1667 11.0001 14.1667H15.0001C15.2734 14.1667 15.5001 14.3934 15.5001 14.6667C15.5001 14.94 15.2734 15.1667 15.0001 15.1667Z" fill="#FF9C00"/>
<circle cx="24.5" cy="3.5" r="2.25" fill="#FF9C00" stroke="white" stroke-width="0.5"/>
</svg>
