<svg width="43" height="41" viewBox="0 0 43 41" fill="none" xmlns="http://www.w3.org/2000/svg">
<rect width="42.4635" height="41" rx="10" fill="white"/>
<path d="M36.3984 31.6981C36.3984 32.8041 35.4653 33.7007 34.3143 33.7007C33.1633 33.7007 32.2302 32.8041 32.2302 31.6981C32.2302 30.5922 33.1633 29.6956 34.3143 29.6956C35.4653 29.6956 36.3984 30.5922 36.3984 31.6981Z" stroke="#951212" stroke-width="2" stroke-linecap="round" stroke-linejoin="round"/>
<path d="M22.5045 31.6981C22.5045 32.8041 21.5714 33.7007 20.4204 33.7007C19.2694 33.7007 18.3363 32.8041 18.3363 31.6981C18.3363 30.5922 19.2694 29.6956 20.4204 29.6956C21.5714 29.6956 22.5045 30.5922 22.5045 31.6981Z" stroke="#951212" stroke-width="2" stroke-linecap="round" stroke-linejoin="round"/>
<path d="M30.1462 9.67017H37.7878L35.0091 24.3556H28.7568M30.1462 9.67017L28.7568 24.3556M30.1462 9.67017H22.1572M28.7568 24.3556H23.1992M22.1572 9.67017H14.1682L16.947 24.3556H23.1992M22.1572 9.67017L23.1992 24.3556" stroke="#951212" stroke-width="2" stroke-linecap="round" stroke-linejoin="round"/>
<path d="M14.1682 9.67007C13.9366 8.78005 12.7788 7 10 7" stroke="#951212" stroke-width="2" stroke-linecap="round" stroke-linejoin="round"/>
<path d="M35.009 24.3555H16.947H14.4888C12.0097 24.3555 10.6947 25.3984 10.6947 27.0255C10.6947 28.6527 12.0097 29.6956 14.4888 29.6956H34.3143" stroke="#951212" stroke-width="2" stroke-linecap="round" stroke-linejoin="round"/>
</svg>
