<svg width="52" height="63" viewBox="0 0 52 63" fill="none" xmlns="http://www.w3.org/2000/svg">
<rect y="0.368408" width="52" height="62.2632" rx="10" fill="white"/>
<g clip-path="url(#clip0_18_3079)">
<path d="M0 32.2619C0 21.0716 10.7452 12 24 12C37.2548 12 48 21.0716 48 32.2619C48 43.4522 37.2548 52.5238 24 52.5238C10.7452 52.5238 0 43.4522 0 32.2619Z" fill="white"/>
<path fill-rule="evenodd" clip-rule="evenodd" d="M25.2132 27.3772C25.2132 26.8111 24.6701 26.3522 24.0001 26.3522C23.3302 26.3522 22.787 26.8111 22.787 27.3772V31.2369H18.2131C17.5431 31.2369 17 31.6958 17 32.2619C17 32.828 17.5431 33.2869 18.2131 33.2869H22.787V37.1466C22.787 37.7127 23.3302 38.1716 24.0001 38.1716C24.6701 38.1716 25.2132 37.7127 25.2132 37.1466V33.2869H29.7869C30.4569 33.2869 31 32.828 31 32.2619C31 31.6958 30.4569 31.2369 29.7869 31.2369H25.2132V27.3772Z" fill="#0F0F0F"/>
</g>
<defs>
<clipPath id="clip0_18_3079">
<rect width="48" height="40.5238" fill="white" transform="translate(0 12)"/>
</clipPath>
</defs>
</svg>
