<svg width="43" height="41" viewBox="0 0 43 41" fill="none" xmlns="http://www.w3.org/2000/svg">
<rect width="42.4635" height="41" rx="10" fill="white"/>
<path d="M32.3984 32.6981C32.3984 33.8041 31.4653 34.7007 30.3143 34.7007C29.1633 34.7007 28.2302 33.8041 28.2302 32.6981C28.2302 31.5922 29.1633 30.6956 30.3143 30.6956C31.4653 30.6956 32.3984 31.5922 32.3984 32.6981Z" stroke="#951212" stroke-width="2" stroke-linecap="round" stroke-linejoin="round"/>
<path d="M18.5045 32.6981C18.5045 33.8041 17.5714 34.7007 16.4204 34.7007C15.2694 34.7007 14.3363 33.8041 14.3363 32.6981C14.3363 31.5922 15.2694 30.6956 16.4204 30.6956C17.5714 30.6956 18.5045 31.5922 18.5045 32.6981Z" stroke="#951212" stroke-width="2" stroke-linecap="round" stroke-linejoin="round"/>
<path d="M26.1462 10.6702H33.7878L31.0091 25.3556H24.7568M26.1462 10.6702L24.7568 25.3556M26.1462 10.6702H18.1572M24.7568 25.3556H19.1992M18.1572 10.6702H10.1682L12.947 25.3556H19.1992M18.1572 10.6702L19.1992 25.3556" stroke="#951212" stroke-width="2" stroke-linecap="round" stroke-linejoin="round"/>
<path d="M10.1682 10.6701C9.9366 9.78005 8.77878 8 6 8" stroke="#951212" stroke-width="2" stroke-linecap="round" stroke-linejoin="round"/>
<path d="M31.009 25.3555H12.947H10.4888C8.0097 25.3555 6.6947 26.3984 6.6947 28.0255C6.6947 29.6527 8.0097 30.6956 10.4888 30.6956H30.3143" stroke="#951212" stroke-width="2" stroke-linecap="round" stroke-linejoin="round"/>
</svg>
