<svg width="43" height="41" viewBox="0 0 43 41" fill="none" xmlns="http://www.w3.org/2000/svg">
<rect width="42.4635" height="41" rx="10" fill="white"/>
<path d="M34.3984 28.6982C34.3984 29.8041 33.4653 30.7007 32.3143 30.7007C31.1633 30.7007 30.2302 29.8041 30.2302 28.6982C30.2302 27.5922 31.1633 26.6956 32.3143 26.6956C33.4653 26.6956 34.3984 27.5922 34.3984 28.6982Z" stroke="#951212" stroke-width="2" stroke-linecap="round" stroke-linejoin="round"/>
<path d="M20.5045 28.6982C20.5045 29.8041 19.5714 30.7007 18.4204 30.7007C17.2694 30.7007 16.3363 29.8041 16.3363 28.6982C16.3363 27.5922 17.2694 26.6956 18.4204 26.6956C19.5714 26.6956 20.5045 27.5922 20.5045 28.6982Z" stroke="#951212" stroke-width="2" stroke-linecap="round" stroke-linejoin="round"/>
<path d="M28.1462 6.6701H35.7878L33.0091 21.3555H26.7568M28.1462 6.6701L26.7568 21.3555M28.1462 6.6701H20.1572M26.7568 21.3555H21.1992M20.1572 6.6701H12.1682L14.947 21.3555H21.1992M20.1572 6.6701L21.1992 21.3555" stroke="#951212" stroke-width="2" stroke-linecap="round" stroke-linejoin="round"/>
<path d="M12.1682 6.67007C11.9366 5.78005 10.7788 4 8 4" stroke="#951212" stroke-width="2" stroke-linecap="round" stroke-linejoin="round"/>
<path d="M33.009 21.3555H14.947H12.4888C10.0097 21.3555 8.6947 22.3984 8.6947 24.0255C8.6947 25.6527 10.0097 26.6956 12.4888 26.6956H32.3143" stroke="#951212" stroke-width="2" stroke-linecap="round" stroke-linejoin="round"/>
</svg>
