<svg width="52" height="52" viewBox="0 0 52 52" fill="none" xmlns="http://www.w3.org/2000/svg">
<rect width="52" height="52" rx="10" fill="white"/>
<g clip-path="url(#clip0_108_1951)">
<path d="M4 26C4 12.7452 14.7452 2 28 2C41.2548 2 52 12.7452 52 26C52 39.2548 41.2548 50 28 50C14.7452 50 4 39.2548 4 26Z" fill="white"/>
<path fill-rule="evenodd" clip-rule="evenodd" d="M29.2132 20.2141C29.2132 19.5436 28.6701 19 28.0001 19C27.3302 19 26.787 19.5436 26.787 20.2141V24.7859H22.2131C21.5431 24.7859 21 25.3295 21 26C21 26.6705 21.5431 27.2141 22.2131 27.2141H26.787V31.7859C26.787 32.4564 27.3302 33 28.0001 33C28.6701 33 29.2132 32.4564 29.2132 31.7859V27.2141H33.7869C34.4569 27.2141 35 26.6705 35 26C35 25.3295 34.4569 24.7859 33.7869 24.7859H29.2132V20.2141Z" fill="#0F0F0F"/>
</g>
<defs>
<clipPath id="clip0_108_1951">
<rect width="48" height="48" fill="white" transform="translate(4 2)"/>
</clipPath>
</defs>
</svg>
