<svg width="20" height="20" viewBox="0 0 20 20" fill="none" xmlns="http://www.w3.org/2000/svg">
<path d="M14.1667 1.66666H5.83333C3.53333 1.66666 1.66666 3.52499 1.66666 5.81666V10.8V11.6333C1.66666 13.925 3.53333 15.7833 5.83333 15.7833H7.08333C7.30833 15.7833 7.60833 15.9333 7.75 16.1167L9 17.775C9.55 18.5083 10.45 18.5083 11 17.775L12.25 16.1167C12.4083 15.9083 12.6583 15.7833 12.9167 15.7833H14.1667C16.4667 15.7833 18.3333 13.925 18.3333 11.6333V5.81666C18.3333 3.52499 16.4667 1.66666 14.1667 1.66666ZM6.66666 9.99999C6.2 9.99999 5.83333 9.62499 5.83333 9.16666C5.83333 8.70832 6.20833 8.33332 6.66666 8.33332C7.125 8.33332 7.5 8.70832 7.5 9.16666C7.5 9.62499 7.13333 9.99999 6.66666 9.99999ZM10 9.99999C9.53333 9.99999 9.16666 9.62499 9.16666 9.16666C9.16666 8.70832 9.54166 8.33332 10 8.33332C10.4583 8.33332 10.8333 8.70832 10.8333 9.16666C10.8333 9.62499 10.4667 9.99999 10 9.99999ZM13.3333 9.99999C12.8667 9.99999 12.5 9.62499 12.5 9.16666C12.5 8.70832 12.875 8.33332 13.3333 8.33332C13.7917 8.33332 14.1667 8.70832 14.1667 9.16666C14.1667 9.62499 13.8 9.99999 13.3333 9.99999Z" fill="#121212"/>
</svg>
