<svg width="21" height="15" viewBox="0 0 21 15" fill="none" xmlns="http://www.w3.org/2000/svg">
<g clip-path="url(#clip0_49_3049)">
<path d="M5.25 10.5208V11.125H2.625C2.39294 11.125 2.17038 11.1886 2.00628 11.3019C1.84219 11.4152 1.75 11.5689 1.75 11.7291C1.75 11.8894 1.84219 12.043 2.00628 12.1563C2.17038 12.2696 2.39294 12.3333 2.625 12.3333H5.25V12.9375C5.25 13.0977 5.34219 13.2514 5.50628 13.3647C5.67038 13.478 5.89294 13.5416 6.125 13.5416C6.35706 13.5416 6.57962 13.478 6.74372 13.3647C6.90781 13.2514 7 13.0977 7 12.9375V10.5208C7 10.3606 6.90781 10.2069 6.74372 10.0936C6.57962 9.98028 6.35706 9.91663 6.125 9.91663C5.89294 9.91663 5.67038 9.98028 5.50628 10.0936C5.34219 10.2069 5.25 10.3606 5.25 10.5208ZM8.75 11.7291C8.75 11.8894 8.84219 12.043 9.00628 12.1563C9.17038 12.2696 9.39294 12.3333 9.625 12.3333H18.375C18.6071 12.3333 18.8296 12.2696 18.9937 12.1563C19.1578 12.043 19.25 11.8894 19.25 11.7291C19.25 11.5689 19.1578 11.4152 18.9937 11.3019C18.8296 11.1886 18.6071 11.125 18.375 11.125H9.625C9.39294 11.125 9.17038 11.1886 9.00628 11.3019C8.84219 11.4152 8.75 11.5689 8.75 11.7291ZM15.75 7.49996C15.75 7.66019 15.8422 7.81387 16.0063 7.92717C16.1704 8.04047 16.3929 8.10413 16.625 8.10413H18.375C18.6071 8.10413 18.8296 8.04047 18.9937 7.92717C19.1578 7.81387 19.25 7.66019 19.25 7.49996C19.25 7.33972 19.1578 7.18605 18.9937 7.07275C18.8296 6.95945 18.6071 6.89579 18.375 6.89579H16.625C16.3929 6.89579 16.1704 6.95945 16.0063 7.07275C15.8422 7.18605 15.75 7.33972 15.75 7.49996ZM8.75 2.06246V2.66663H2.625C2.39294 2.66663 2.17038 2.73028 2.00628 2.84358C1.84219 2.95688 1.75 3.11056 1.75 3.27079C1.75 3.43103 1.84219 3.5847 2.00628 3.698C2.17038 3.81131 2.39294 3.87496 2.625 3.87496H8.75V4.47913C8.75 4.63936 8.84219 4.79303 9.00628 4.90634C9.17038 5.01964 9.39294 5.08329 9.625 5.08329C9.85706 5.08329 10.0796 5.01964 10.2437 4.90634C10.4078 4.79303 10.5 4.63936 10.5 4.47913V2.06246C10.5 1.90222 10.4078 1.74855 10.2437 1.63525C10.0796 1.52194 9.85706 1.45829 9.625 1.45829C9.39294 1.45829 9.17038 1.52194 9.00628 1.63525C8.84219 1.74855 8.75 1.90222 8.75 2.06246ZM12.25 3.27079C12.25 3.43103 12.3422 3.5847 12.5063 3.698C12.6704 3.81131 12.8929 3.87496 13.125 3.87496H18.375C18.6071 3.87496 18.8296 3.81131 18.9937 3.698C19.1578 3.5847 19.25 3.43103 19.25 3.27079C19.25 3.11056 19.1578 2.95688 18.9937 2.84358C18.8296 2.73028 18.6071 2.66663 18.375 2.66663H13.125C12.8929 2.66663 12.6704 2.73028 12.5063 2.84358C12.3422 2.95688 12.25 3.11056 12.25 3.27079ZM12.25 6.29163V6.89579L2.625 6.89579C2.39294 6.89579 2.17038 6.95945 2.00628 7.07275C1.84219 7.18605 1.75 7.33972 1.75 7.49996C1.75 7.66019 1.84219 7.81387 2.00628 7.92717C2.17038 8.04047 2.39294 8.10413 2.625 8.10413H12.25V8.70829C12.25 8.86853 12.3422 9.0222 12.5063 9.1355C12.6704 9.24881 12.8929 9.31246 13.125 9.31246C13.3571 9.31246 13.5796 9.24881 13.7437 9.1355C13.9078 9.0222 14 8.86853 14 8.70829V6.29163C14 6.13139 13.9078 5.97772 13.7437 5.86442C13.5796 5.75111 13.3571 5.68746 13.125 5.68746C12.8929 5.68746 12.6704 5.75111 12.5063 5.86442C12.3422 5.97772 12.25 6.13139 12.25 6.29163Z" fill="white"/>
</g>
<defs>
<clipPath id="clip0_49_3049">
<rect width="14.5" height="21" fill="white" transform="matrix(0 -1 1 0 0 14.75)"/>
</clipPath>
</defs>
</svg>
