<svg width="36" height="35" viewBox="0 0 36 35" fill="none" xmlns="http://www.w3.org/2000/svg">
<g clip-path="url(#clip0_85_1771)">
<path d="M0 17.5C0 7.83502 8.05888 0 18 0C27.9411 0 36 7.83502 36 17.5C36 27.165 27.9411 35 18 35C8.05888 35 0 27.165 0 17.5Z" fill="#9B9B9B"/>
<path fill-rule="evenodd" clip-rule="evenodd" d="M18.9099 13.281C18.9099 12.7921 18.5025 12.3958 18.0001 12.3958C17.4976 12.3958 17.0903 12.7921 17.0903 13.281V16.6146H13.6598C13.1573 16.6146 12.75 17.011 12.75 17.4999C12.75 17.9888 13.1573 18.3852 13.6598 18.3852H17.0903V21.7188C17.0903 22.2077 17.4976 22.6041 18.0001 22.6041C18.5025 22.6041 18.9099 22.2077 18.9099 21.7188V18.3852H22.3402C22.8427 18.3852 23.25 17.9888 23.25 17.4999C23.25 17.011 22.8427 16.6146 22.3402 16.6146H18.9099V13.281Z" fill="white"/>
</g>
<defs>
<clipPath id="clip0_85_1771">
<rect width="36" height="35" fill="white"/>
</clipPath>
</defs>
</svg>
