<svg width="48" height="37" viewBox="0 0 48 37" fill="none" xmlns="http://www.w3.org/2000/svg">
<g clip-path="url(#clip0_18_2591)">
<path d="M0 18.3035C0 8.47777 10.7452 0.512451 24 0.512451C37.2548 0.512451 48 8.47777 48 18.3035C48 28.1292 37.2548 36.0945 24 36.0945C10.7452 36.0945 0 28.1292 0 18.3035Z" fill="#9B9B9B"/>
<path fill-rule="evenodd" clip-rule="evenodd" d="M25.2132 14.0144C25.2132 13.5174 24.6701 13.1144 24.0001 13.1144C23.3302 13.1144 22.787 13.5174 22.787 14.0144V17.4035H18.2131C17.5431 17.4035 17 17.8064 17 18.3035C17 18.8005 17.5431 19.2035 18.2131 19.2035H22.787V22.5926C22.787 23.0896 23.3302 23.4925 24.0001 23.4925C24.6701 23.4925 25.2132 23.0896 25.2132 22.5926V19.2035H29.7869C30.4569 19.2035 31 18.8005 31 18.3035C31 17.8064 30.4569 17.4035 29.7869 17.4035H25.2132V14.0144Z" fill="white"/>
</g>
<defs>
<clipPath id="clip0_18_2591">
<rect width="48" height="35.5821" fill="white" transform="translate(0 0.512451)"/>
</clipPath>
</defs>
</svg>
