<svg width="48" height="48" viewBox="0 0 48 48" fill="none" xmlns="http://www.w3.org/2000/svg">
<circle cx="24" cy="24" r="24" fill="#D9D9D9"/>
<path d="M21.3491 16.7734C21.7061 16.5911 22.0809 16.5 22.4736 16.5C22.8842 16.5182 23.6518 16.7934 23.9552 16.9192C25.9545 17.7211 29.7744 20.3457 31.2382 21.9496C31.4881 22.2047 31.7558 22.5146 31.8272 22.5875C32.1307 22.9885 32.2913 23.4806 32.2913 24.0109C32.2913 24.483 32.1485 24.9569 31.8629 25.3396C31.8094 25.4125 31.5595 25.7224 31.3631 25.9228L31.256 26.0322C29.7566 27.6908 26.0259 30.1877 24.1337 30.9897C24.1337 31.0079 23.0091 31.4818 22.4736 31.5H22.4022C21.5811 31.5 20.8135 31.0261 20.4208 30.2606C20.2066 29.8414 20.0103 28.6203 19.9924 28.6021C19.8318 27.5085 19.7247 25.8335 19.7247 23.9909C19.7247 22.0589 19.8318 20.3092 20.0281 19.2339C20.0281 19.2157 20.2245 18.2315 20.3494 17.9034C20.5458 17.4295 20.9028 17.0286 21.3491 16.7734Z" fill="#71B1A1"/>
</svg>
