<svg width="10" height="11" viewBox="0 0 10 11" fill="none" xmlns="http://www.w3.org/2000/svg">
<path d="M7.69534 9.87518C7.62957 9.87543 7.56539 9.85493 7.51195 9.81658L5.00003 7.99549L2.48812 9.81658C2.43445 9.85551 2.3698 9.87635 2.30351 9.87611C2.23721 9.87587 2.17271 9.85455 2.11933 9.81524C2.06595 9.77593 2.02645 9.72066 2.00655 9.65742C1.98665 9.59418 1.98738 9.52626 2.00863 9.46346L2.98831 6.5617L0.449252 4.82049C0.394254 4.78282 0.352745 4.72854 0.330789 4.6656C0.308834 4.60265 0.307582 4.53434 0.327218 4.47063C0.346853 4.40692 0.386347 4.35117 0.439928 4.3115C0.493509 4.27184 0.55837 4.25035 0.625033 4.25018H3.75746L4.70277 1.341C4.72313 1.27819 4.76287 1.22344 4.81627 1.18462C4.86968 1.14579 4.93401 1.12488 5.00003 1.12488C5.06606 1.12488 5.13039 1.14579 5.1838 1.18462C5.2372 1.22344 5.27693 1.27819 5.2973 1.341L6.24261 4.25115H9.37503C9.44178 4.25112 9.50678 4.27246 9.56052 4.31205C9.61427 4.35163 9.65392 4.40739 9.67368 4.47114C9.69344 4.5349 9.69227 4.6033 9.67033 4.66634C9.6484 4.72938 9.60686 4.78374 9.55179 4.82147L7.01175 6.5617L7.99085 9.46268C8.00672 9.50964 8.01118 9.55971 8.00387 9.60874C7.99656 9.65778 7.97769 9.70437 7.94882 9.74467C7.91995 9.78497 7.88191 9.81782 7.83784 9.84051C7.79376 9.8632 7.74492 9.87509 7.69534 9.87518Z" fill="#FFAD30"/>
</svg>
