<svg width="9" height="9" viewBox="0 0 9 9" fill="none" xmlns="http://www.w3.org/2000/svg">
<g clip-path="url(#clip0_16_1360)">
<path d="M6.2906 8.30329C6.23798 8.30346 6.18664 8.28702 6.14391 8.25631L4.13542 6.798L2.12485 8.25343C2.0819 8.28454 2.03016 8.30118 1.97713 8.30095C1.92409 8.30072 1.8725 8.28363 1.82982 8.25215C1.78714 8.22067 1.75557 8.17643 1.73969 8.12583C1.7238 8.07523 1.72442 8.02089 1.74146 7.97066L2.52687 5.64982L0.496617 4.25539C0.452641 4.22522 0.419464 4.18178 0.401936 4.13141C0.384407 4.08104 0.383445 4.02639 0.39919 3.97544C0.414935 3.92448 0.446562 3.8799 0.489449 3.8482C0.532337 3.8165 0.584238 3.79935 0.637569 3.79924L3.14351 3.80104L3.90142 1.47424C3.91775 1.424 3.94957 1.38023 3.99231 1.3492C4.03506 1.31817 4.08654 1.30147 4.13936 1.30151C4.19218 1.30155 4.24363 1.31832 4.28633 1.34941C4.32903 1.3805 4.36079 1.42432 4.37705 1.47458L5.13163 3.80324L7.63757 3.80503C7.69096 3.80505 7.74296 3.82216 7.78593 3.85385C7.8289 3.88555 7.86059 3.93018 7.87636 3.9812C7.89213 4.03221 7.89115 4.08694 7.87357 4.13736C7.85599 4.18778 7.82272 4.23124 7.77865 4.26139L5.74562 5.65212L6.52724 7.97346C6.5399 8.01104 6.54344 8.0511 6.53757 8.09032C6.5317 8.12954 6.51657 8.1668 6.49346 8.19903C6.47034 8.23125 6.43988 8.25751 6.40461 8.27564C6.36934 8.29377 6.33026 8.30325 6.2906 8.30329Z" fill="#FFAD30"/>
</g>
<defs>
<clipPath id="clip0_16_1360">
<rect width="8" height="8" fill="white" transform="translate(0.139648 0.798828) rotate(0.0409972)"/>
</clipPath>
</defs>
</svg>
