<svg width="5" height="17" viewBox="0 0 5 17" fill="none" xmlns="http://www.w3.org/2000/svg">
<path d="M2.23628 15.2641C1.27245 15.2641 0.487747 12.0729 0.487747 8.15318C0.487747 4.23349 1.27245 1.04224 2.23628 1.04224C3.2001 1.04224 3.98481 4.23349 3.98481 8.15318C3.98481 12.0729 3.2001 15.2641 2.23628 15.2641ZM2.23628 2.08286C1.41234 2.08286 0.74363 4.8093 0.74363 8.15318C0.74363 11.4971 1.41234 14.2235 2.23628 14.2235C3.06022 14.2235 3.72892 11.4971 3.72892 8.15318C3.72892 4.8093 3.06022 2.08286 2.23628 2.08286Z" fill="#D9D9D9"/>
<path d="M4.02745 15.9579C3.99504 15.9579 3.96263 15.9093 3.93704 15.8053L3.59586 14.4178C3.54639 14.2166 3.54639 13.8836 3.59586 13.6824C3.64534 13.4812 3.72722 13.4812 3.77669 13.6824L4.11786 15.0699C4.16734 15.2711 4.16734 15.6041 4.11786 15.8053C4.09228 15.9093 4.05986 15.9579 4.02745 15.9579Z" fill="#D9D9D9"/>
</svg>
