<svg width="6" height="17" viewBox="0 0 6 17" fill="none" xmlns="http://www.w3.org/2000/svg">
<path d="M3.25883 15.2641C2.06236 15.2641 1.08824 12.0729 1.08824 8.15318C1.08824 4.23349 2.06236 1.04224 3.25883 1.04224C4.4553 1.04224 5.42942 4.23349 5.42942 8.15318C5.42942 12.0729 4.4553 15.2641 3.25883 15.2641ZM3.25883 2.08286C2.23601 2.08286 1.40589 4.8093 1.40589 8.15318C1.40589 11.4971 2.23601 14.2235 3.25883 14.2235C4.28165 14.2235 5.11177 11.4971 5.11177 8.15318C5.11177 4.8093 4.28165 2.08286 3.25883 2.08286Z" fill="#D9D9D9"/>
<path d="M5.48235 15.9579C5.44212 15.9579 5.40188 15.9093 5.37012 15.8053L4.94659 14.4178C4.88518 14.2166 4.88518 13.8836 4.94659 13.6824C5.008 13.4812 5.10965 13.4812 5.17106 13.6824L5.59459 15.0699C5.656 15.2711 5.656 15.6041 5.59459 15.8053C5.56282 15.9093 5.52259 15.9579 5.48235 15.9579Z" fill="#D9D9D9"/>
</svg>
