<svg width="18" height="18" viewBox="0 0 18 18" fill="none" xmlns="http://www.w3.org/2000/svg">
<path d="M10.2976 2.6325L11.6176 5.2725C11.7976 5.64 12.2776 5.9925 12.6826 6.06L15.0751 6.4575C16.6051 6.7125 16.9651 7.8225 15.8626 8.9175L14.0026 10.7775C13.6876 11.0925 13.5151 11.7 13.6126 12.135L14.1451 14.4375C14.5651 16.26 13.5976 16.965 11.9851 16.0125L9.74255 14.685C9.33755 14.445 8.67005 14.445 8.25755 14.685L6.01505 16.0125C4.41005 16.965 3.43505 16.2525 3.85505 14.4375L4.38755 12.135C4.48505 11.7 4.31255 11.0925 3.99755 10.7775L2.13755 8.9175C1.04255 7.8225 1.39505 6.7125 2.92505 6.4575L5.31755 6.06C5.71505 5.9925 6.19505 5.64 6.37505 5.2725L7.69505 2.6325C8.41505 1.2 9.58505 1.2 10.2976 2.6325Z" fill="white" stroke="white" stroke-width="1.5" stroke-linecap="round" stroke-linejoin="round"/>
</svg>
