<svg width="19" height="19" viewBox="0 0 19 19" fill="none" xmlns="http://www.w3.org/2000/svg">
<path d="M10.7975 3.13248L12.1175 5.77248C12.2975 6.13998 12.7775 6.49248 13.1825 6.55998L15.575 6.95748C17.105 7.21248 17.465 8.32248 16.3625 9.41748L14.5025 11.2775C14.1875 11.5925 14.015 12.2 14.1125 12.635L14.645 14.9375C15.065 16.76 14.0975 17.465 12.485 16.5125L10.2425 15.185C9.83749 14.945 9.16999 14.945 8.75749 15.185L6.51499 16.5125C4.90999 17.465 3.93499 16.7525 4.35499 14.9375L4.88749 12.635C4.98499 12.2 4.81249 11.5925 4.49749 11.2775L2.63749 9.41748C1.54249 8.32248 1.89499 7.21248 3.42499 6.95748L5.81749 6.55998C6.21499 6.49248 6.69499 6.13998 6.87499 5.77248L8.19499 3.13248C8.91499 1.69998 10.085 1.69998 10.7975 3.13248Z" fill="#129575" stroke="#129575" stroke-width="1.5" stroke-linecap="round" stroke-linejoin="round"/>
</svg>
