<svg width="8" height="11" viewBox="0 0 8 11" fill="none" xmlns="http://www.w3.org/2000/svg">
<path d="M3.73204 9.70464C1.97287 9.70464 0.540619 7.72089 0.540619 5.28433C0.540619 2.84776 1.97287 0.864014 3.73204 0.864014C5.49121 0.864014 6.92346 2.84776 6.92346 5.28433C6.92346 7.72089 5.49121 9.70464 3.73204 9.70464ZM3.73204 1.51089C2.22818 1.51089 1.00766 3.2057 1.00766 5.28433C1.00766 7.36295 2.22818 9.05776 3.73204 9.05776C5.2359 9.05776 6.45642 7.36295 6.45642 5.28433C6.45642 3.2057 5.2359 1.51089 3.73204 1.51089Z" fill="#D9D9D9"/>
<path d="M7.0013 10.1359C6.94214 10.1359 6.88298 10.1057 6.83628 10.041L6.21356 9.17849C6.12327 9.05342 6.12327 8.84642 6.21356 8.72136C6.30386 8.5963 6.45331 8.5963 6.5436 8.72136L7.16632 9.58386C7.25661 9.70892 7.25661 9.91592 7.16632 10.041C7.11962 10.1057 7.06046 10.1359 7.0013 10.1359Z" fill="#D9D9D9"/>
</svg>
