<svg width="19" height="18" viewBox="0 0 19 18" fill="none" xmlns="http://www.w3.org/2000/svg">
<path d="M9.40588 16.3125C5.21823 16.3125 1.80882 12.8625 1.80882 8.625C1.80882 4.3875 5.21823 0.9375 9.40588 0.9375C13.5935 0.9375 17.0029 4.3875 17.0029 8.625C17.0029 12.8625 13.5935 16.3125 9.40588 16.3125ZM9.40588 2.0625C5.826 2.0625 2.92059 5.01 2.92059 8.625C2.92059 12.24 5.826 15.1875 9.40588 15.1875C12.9858 15.1875 15.8912 12.24 15.8912 8.625C15.8912 5.01 12.9858 2.0625 9.40588 2.0625Z" fill="#D9D9D9"/>
<path d="M17.1882 17.0625C17.0474 17.0625 16.9066 17.01 16.7954 16.8975L15.3131 15.3975C15.0981 15.18 15.0981 14.82 15.3131 14.6025C15.528 14.385 15.8838 14.385 16.0987 14.6025L17.5811 16.1025C17.796 16.32 17.796 16.68 17.5811 16.8975C17.4699 17.01 17.3291 17.0625 17.1882 17.0625Z" fill="#D9D9D9"/>
</svg>
