<svg width="24" height="23" viewBox="0 0 24 23" fill="none" xmlns="http://www.w3.org/2000/svg">
<g clip-path="url(#clip0_48_3179)">
<path fill-rule="evenodd" clip-rule="evenodd" d="M5 9.43359C3.89543 9.43359 3 10.2783 3 11.3203C3 12.3624 3.89543 13.2071 5 13.2071C6.10457 13.2071 7 12.3624 7 11.3203C7 10.2783 6.10457 9.43359 5 9.43359ZM10 11.3203C10 10.2783 10.8954 9.43359 12 9.43359C13.1046 9.43359 14 10.2783 14 11.3203C14 12.3624 13.1046 13.2071 12 13.2071C10.8954 13.2071 10 12.3624 10 11.3203ZM17 11.3203C17 10.2783 17.8954 9.43359 19 9.43359C20.1046 9.43359 21 10.2783 21 11.3203C21 12.3624 20.1046 13.2071 19 13.2071C17.8954 13.2071 17 12.3624 17 11.3203Z" fill="black"/>
</g>
<defs>
<clipPath id="clip0_48_3179">
<rect width="24" height="22.6409" fill="white"/>
</clipPath>
</defs>
</svg>
