<svg width="24" height="23" viewBox="0 0 24 23" fill="none" xmlns="http://www.w3.org/2000/svg">
<path fill-rule="evenodd" clip-rule="evenodd" d="M5 9.46143C3.89543 9.46143 3 10.3086 3 11.3537C3 12.3988 3.89543 13.246 5 13.246C6.10457 13.246 7 12.3988 7 11.3537C7 10.3086 6.10457 9.46143 5 9.46143ZM10 11.3537C10 10.3086 10.8954 9.46143 12 9.46143C13.1046 9.46143 14 10.3086 14 11.3537C14 12.3988 13.1046 13.246 12 13.246C10.8954 13.246 10 12.3988 10 11.3537ZM17 11.3537C17 10.3086 17.8954 9.46143 19 9.46143C20.1046 9.46143 21 10.3086 21 11.3537C21 12.3988 20.1046 13.246 19 13.246C17.8954 13.246 17 12.3988 17 11.3537Z" fill="black"/>
</svg>
