<svg width="3" height="13" viewBox="0 0 3 13" fill="none" xmlns="http://www.w3.org/2000/svg">
<path d="M1.11804 11.436C0.636127 11.436 0.243774 9.10724 0.243774 6.24692C0.243774 3.38661 0.636127 1.05786 1.11804 1.05786C1.59995 1.05786 1.9923 3.38661 1.9923 6.24692C1.9923 9.10724 1.59995 11.436 1.11804 11.436ZM1.11804 1.81724C0.706069 1.81724 0.371716 3.8068 0.371716 6.24692C0.371716 8.68705 0.706069 10.6766 1.11804 10.6766C1.53001 10.6766 1.86436 8.68705 1.86436 6.24692C1.86436 3.8068 1.53001 1.81724 1.11804 1.81724Z" fill="#D9D9D9"/>
<path d="M2.01364 11.9422C1.99744 11.9422 1.98123 11.9068 1.96844 11.8309L1.79785 10.8184C1.77311 10.6716 1.77311 10.4286 1.79785 10.2817C1.82258 10.1349 1.86352 10.1349 1.88826 10.2817L2.05885 11.2942C2.08358 11.4411 2.08358 11.6841 2.05885 11.8309C2.04605 11.9068 2.02985 11.9422 2.01364 11.9422Z" fill="#D9D9D9"/>
</svg>
