<svg width="17" height="17" viewBox="0 0 17 17" fill="none" xmlns="http://www.w3.org/2000/svg">
<path d="M14.6058 5.98543C13.8621 2.71293 11.0075 1.23959 8.50001 1.23959C8.50001 1.23959 8.50001 1.23959 8.49292 1.23959C5.99251 1.23959 3.13084 2.70584 2.38709 5.97834C1.55834 9.63334 3.79667 12.7288 5.82251 14.6767C6.57334 15.3992 7.53667 15.7604 8.50001 15.7604C9.46334 15.7604 10.4267 15.3992 11.1704 14.6767C13.1963 12.7288 15.4346 9.64043 14.6058 5.98543ZM8.50001 9.53418C7.26751 9.53418 6.26876 8.53543 6.26876 7.30293C6.26876 6.07043 7.26751 5.07168 8.50001 5.07168C9.73251 5.07168 10.7313 6.07043 10.7313 7.30293C10.7313 8.53543 9.73251 9.53418 8.50001 9.53418Z" fill="#71B1A1"/>
</svg>
